<svg width="137" height="19" viewBox="0 0 137 19" fill="none" xmlns="http://www.w3.org/2000/svg">
<path d="M4.41 13H1.372C1.134 13 0.882 13.014 0.672 13.028C0.462 13.042 0.294 13.056 0.238 13.056C0.168 13.056 0.126 13.056 0.084 12.972C0.042 12.874 0.056 12.832 0.126 12.762C0.784 12.146 2.016 11.068 3.136 9.864C4.256 8.66 4.9 7.582 4.858 6.364C4.816 5.118 4.06 4.376 3.052 4.39C1.862 4.404 1.414 5.328 1.176 5.748C1.12 5.846 1.078 5.86 1.008 5.818L0.812 5.734C0.77 5.706 0.756 5.664 0.812 5.538C1.036 4.992 1.722 3.438 3.612 3.438C4.788 3.438 6.062 4.404 6.062 5.986C6.062 7.176 5.586 8.184 4.326 9.598C3.374 10.69 2.268 11.502 1.652 12.048H4.494C5.446 12.048 5.81 11.39 6.118 10.872C6.188 10.746 6.23 10.732 6.37 10.802C6.482 10.858 6.538 10.914 6.482 10.998L5.572 13.182C5.502 13.336 5.614 13.336 5.362 13.336C5.236 13.336 5.236 13.322 5.18 13.196C5.096 13.014 4.83 13 4.41 13ZM10.57 13.21C8.302 13.21 7.434 10.494 7.434 8.8C7.434 5.594 8.764 3.438 10.556 3.438C12.614 3.438 13.566 6.112 13.566 8.24C13.566 11.446 12.376 13.21 10.57 13.21ZM10.584 12.706C11.018 12.706 11.55 12.538 11.928 11.712C12.236 11.04 12.362 9.976 12.362 7.932C12.362 5.874 11.662 3.942 10.472 3.942C9.926 3.942 9.534 4.152 9.212 4.782C8.708 5.762 8.652 7.4 8.652 8.562C8.652 9.892 8.82 10.872 9.128 11.516C9.562 12.44 10.094 12.706 10.584 12.706Z" fill="#42101B"/>
<path d="M136.887 9.5L134 6.61325L131.113 9.5L134 12.3868L136.887 9.5ZM22 9.49999L22 9.99999L134 10L134 9.5L134 9L22 8.99999L22 9.49999Z" fill="#42101B" fill-opacity="0.24"/>
</svg>
