<?xml version="1.0" standalone="no"?>
<!DOCTYPE svg PUBLIC "-//W3C//DTD SVG 20010904//EN"
 "http://www.w3.org/TR/2001/REC-SVG-20010904/DTD/svg10.dtd">
<svg version="1.0" xmlns="http://www.w3.org/2000/svg"
 width="1956.000000pt" height="1047.000000pt" viewBox="0 0 1956.000000 1047.000000"
 preserveAspectRatio="xMidYMid meet">
<metadata>
Created by potrace 1.16, written by Peter Selinger 2001-2019
</metadata>
<g transform="translate(0.000000,1047.000000) scale(0.100000,-0.100000)"
fill="#641D18" stroke="none">
<path d="M9508 10459 c-2 -6 -55 -16 -118 -24 -159 -19 -445 -77 -515 -105
-11 -5 -45 -16 -75 -24 -63 -19 -248 -84 -270 -95 -8 -4 -55 -25 -105 -46
-176 -75 -428 -215 -600 -334 -85 -58 -263 -191 -286 -213 -8 -7 -50 -43 -94
-80 -85 -70 -366 -353 -450 -453 -154 -181 -376 -489 -451 -624 -11 -18 -23
-41 -29 -50 -64 -105 -133 -230 -179 -326 -57 -117 -116 -246 -116 -252 0 -3
-10 -27 -21 -52 -30 -64 -35 -77 -65 -156 -30 -80 -123 -355 -135 -400 -65
-239 -92 -352 -124 -525 -14 -74 -30 -157 -35 -185 -16 -76 -33 -231 -60 -545
-13 -157 -13 -595 0 -709 6 -47 15 -142 20 -211 16 -195 41 -363 85 -580 9
-41 20 -96 25 -123 5 -26 14 -63 21 -82 26 -70 6 -60 -134 66 -126 113 -251
214 -331 269 -37 25 -72 50 -79 55 -21 17 -101 53 -134 60 -95 19 -177 -62
-221 -220 -6 -22 -18 -65 -26 -95 -39 -139 -58 -209 -71 -255 -32 -113 -33
-108 38 -145 240 -124 417 -488 417 -857 0 -42 27 -24 91 62 36 49 98 114 144
153 44 37 82 69 85 72 35 35 289 170 321 170 8 0 19 4 24 9 10 9 38 15 62 12
14 -1 47 -86 40 -103 -4 -12 -23 -20 -132 -62 -190 -72 -406 -250 -509 -421
-75 -123 -74 -137 12 -315 97 -198 344 -510 425 -536 58 -18 245 165 486 479
45 59 86 107 91 107 5 0 19 -17 31 -37 13 -21 27 -40 31 -41 4 -2 8 -9 8 -14
0 -22 -276 -378 -402 -519 l-68 -76 17 -34 c18 -36 114 -168 172 -234 116
-134 448 -435 479 -435 13 0 318 286 409 384 72 75 74 76 114 37 38 -39 37
-49 -12 -96 -102 -100 -256 -313 -297 -412 -38 -89 -33 -104 61 -200 242 -249
720 -522 1107 -632 41 -12 91 -26 110 -32 57 -16 163 -34 350 -59 194 -26 474
6 665 77 144 53 336 165 399 232 40 41 48 40 119 -22 131 -114 312 -215 467
-262 134 -40 180 -50 320 -67 98 -11 359 -4 440 12 161 33 240 52 290 67 73
21 217 72 257 89 17 8 33 14 36 14 2 0 54 23 113 51 60 28 147 69 194 91 47
22 93 44 103 49 10 5 44 24 75 40 193 104 324 203 377 284 59 90 59 94 -14
235 -93 183 -135 248 -233 356 -21 23 -38 45 -38 51 0 14 74 83 89 83 7 0 107
-91 222 -202 115 -112 219 -205 231 -206 11 -2 35 6 52 19 78 57 302 257 349
312 29 33 70 81 93 106 108 122 185 242 169 265 -5 7 -55 67 -110 132 -55 65
-118 142 -140 170 -192 247 -178 218 -133 280 36 51 40 52 61 22 8 -13 25 -34
37 -48 12 -14 30 -36 39 -50 9 -14 26 -36 37 -50 210 -248 247 -284 341 -344
56 -34 52 -35 129 36 162 152 304 361 408 601 24 55 21 70 -31 169 -100 189
-305 360 -546 457 -37 15 -42 32 -21 78 29 64 28 64 105 31 210 -88 459 -293
535 -440 28 -54 44 -29 44 65 0 83 45 319 69 365 5 9 19 42 31 72 45 112 152
250 244 315 15 11 34 25 40 30 7 6 30 20 52 32 41 23 48 50 25 98 -5 11 -14
38 -19 60 -35 141 -65 253 -72 270 -5 11 -12 36 -16 55 -3 19 -10 41 -14 50
-48 101 -64 123 -112 153 -59 36 -140 14 -270 -76 -86 -59 -132 -91 -138 -97
-3 -3 -43 -37 -90 -75 -47 -38 -98 -82 -115 -97 -41 -37 -49 -22 -31 53 23 96
70 366 95 544 40 284 49 926 18 1240 -32 317 -44 390 -123 765 -41 197 -156
571 -229 745 -7 17 -21 53 -30 80 -10 28 -22 55 -26 60 -4 6 -17 35 -29 65
-28 72 -182 379 -226 451 -19 31 -34 60 -34 63 0 4 -20 37 -45 75 -25 38 -45
71 -45 74 0 23 -250 367 -379 522 -121 145 -426 448 -556 553 -66 52 -140 112
-165 132 -53 42 -286 200 -295 200 -4 0 -20 9 -36 21 -71 50 -376 203 -519
260 -30 12 -69 28 -87 35 -17 8 -38 14 -46 14 -9 0 -18 4 -21 9 -3 5 -23 12
-43 16 -21 4 -42 10 -48 15 -5 4 -30 12 -55 18 -25 6 -79 20 -120 32 -41 12
-95 26 -120 30 -25 5 -81 16 -125 25 -44 9 -132 22 -195 30 -63 7 -116 18
-118 24 -3 8 -106 11 -322 11 -216 0 -319 -3 -322 -11z m632 -378 c69 -6 148
-15 175 -21 28 -5 100 -19 160 -31 61 -12 119 -25 130 -29 11 -5 36 -12 55
-15 19 -4 94 -26 165 -50 138 -46 188 -65 290 -110 17 -8 53 -23 80 -35 68
-29 114 -51 155 -76 19 -11 55 -32 80 -46 87 -48 115 -66 170 -101 64 -42 273
-189 280 -197 3 -3 39 -32 80 -65 97 -75 459 -437 536 -535 32 -41 69 -86 81
-100 13 -14 23 -28 23 -32 0 -3 6 -13 13 -20 27 -26 176 -244 232 -338 21 -36
43 -66 47 -68 4 -2 8 -8 8 -14 0 -6 15 -36 34 -67 35 -58 216 -414 216 -426 0
-3 11 -30 24 -58 13 -29 40 -95 60 -147 20 -52 40 -102 45 -110 5 -9 12 -31
16 -50 4 -19 11 -39 15 -45 4 -5 11 -26 15 -45 4 -19 11 -41 16 -50 8 -13 33
-102 75 -260 252 -953 215 -2049 -101 -2995 -31 -93 -61 -174 -66 -179 -5 -6
-9 -16 -9 -24 0 -7 -9 -34 -21 -60 -11 -26 -25 -58 -31 -72 -5 -14 -16 -38
-23 -55 -8 -16 -23 -52 -35 -80 -39 -90 -150 -309 -170 -335 -11 -14 -20 -29
-20 -34 0 -12 -126 -220 -185 -306 -92 -133 -109 -156 -180 -247 -264 -338
-640 -686 -958 -885 -37 -24 -87 -55 -110 -70 -23 -15 -71 -42 -107 -60 -36
-19 -92 -48 -125 -65 -33 -17 -89 -45 -125 -61 -36 -16 -86 -39 -113 -50 -26
-12 -56 -22 -65 -22 -10 0 -22 -4 -27 -9 -14 -13 -244 -85 -385 -121 -37 -9
-141 -29 -300 -56 -112 -20 -606 -29 -735 -13 -121 14 -262 36 -340 53 -38 8
-92 20 -120 25 -27 6 -61 15 -75 20 -14 5 -52 17 -85 26 -93 26 -244 81 -330
120 -16 8 -52 23 -80 35 -237 101 -568 311 -825 523 -97 80 -351 328 -402 392
-22 28 -57 68 -77 90 -208 225 -545 770 -692 1120 -4 11 -17 43 -29 70 -11 28
-25 58 -30 67 -6 10 -10 23 -10 29 0 6 -7 25 -15 42 -28 62 -115 323 -115 346
0 9 -4 21 -9 27 -5 5 -14 29 -19 54 -6 25 -18 72 -27 105 -68 263 -113 524
-146 860 -16 151 -16 803 -1 945 21 197 59 464 76 535 3 11 15 65 27 120 12
55 31 134 41 175 11 41 24 93 29 115 6 22 16 58 23 80 8 22 29 87 46 145 18
58 36 110 40 115 4 6 15 35 24 65 18 56 33 92 67 166 10 23 19 44 19 47 0 15
131 288 191 397 105 192 266 439 388 595 39 50 89 114 112 144 54 70 312 335
409 420 256 224 487 382 775 531 61 31 151 74 200 94 50 21 98 42 107 47 10 5
23 9 30 9 7 0 25 6 40 14 15 8 41 17 59 21 19 4 40 11 49 16 15 9 153 46 275
75 83 20 213 42 320 54 50 6 126 14 170 19 96 11 352 7 525 -8z M8903 9819
c-106 -52 -168 -222 -193 -532 -10 -130 -20 -153 -87 -204 -32 -24 -46 -28
-105 -28 l-69 0 -42 46 c-23 25 -63 71 -89 101 -86 101 -132 104 -278 15 -149
-91 -395 -307 -460 -405 -53 -79 -35 -140 105 -352 105 -160 119 -191 120
-260 1 -176 -250 -216 -385 -60 -36 42 -196 105 -241 95 -53 -12 -147 -85
-211 -163 -100 -123 -286 -407 -275 -418 2 -3 51 -5 108 -7 138 -3 198 -39
264 -162 43 -78 57 -270 30 -392 -51 -225 -172 -315 -419 -314 -142 1 -149 -2
-166 -74 -19 -84 -40 -187 -50 -255 -6 -36 -15 -85 -20 -110 -6 -25 -15 -88
-20 -140 -6 -52 -12 -102 -15 -110 -27 -91 -23 -858 6 -1065 23 -166 40 -277
68 -430 14 -77 71 -308 80 -325 5 -9 12 -36 16 -60 4 -24 11 -51 16 -60 4 -8
24 -64 44 -125 20 -60 42 -123 49 -140 7 -16 22 -52 31 -80 10 -27 22 -54 25
-60 4 -5 11 -21 15 -35 20 -63 148 -327 210 -430 25 -41 50 -86 57 -100 14
-26 42 -71 116 -185 43 -65 188 -264 202 -275 3 -3 23 -27 45 -55 153 -194
484 -500 712 -658 161 -112 555 -327 600 -327 3 0 19 -6 36 -14 286 -123 384
-121 532 16 36 33 51 24 66 -40 13 -59 62 -134 101 -154 52 -28 324 -41 561
-27 243 13 259 22 312 174 29 85 23 83 96 28 154 -117 228 -116 506 3 17 8 33
14 36 14 12 0 190 84 275 129 43 23 248 145 252 150 3 3 43 32 90 63 47 32 95
66 105 76 11 9 49 40 85 67 186 141 553 541 723 790 147 216 347 582 422 775
10 25 21 54 26 65 71 162 176 507 225 740 112 524 144 1266 74 1665 -6 30 -21
125 -35 210 -14 85 -32 187 -41 225 -8 39 -18 82 -21 98 -8 41 -29 47 -160 46
-315 -3 -461 184 -422 536 25 227 114 324 306 333 l101 5 -29 56 c-124 234
-325 474 -433 515 -47 18 -51 18 -103 2 -63 -20 -143 -65 -192 -109 -115 -100
-270 -100 -338 2 -24 35 -31 105 -14 139 4 9 16 35 27 57 10 22 33 62 52 90
105 149 172 283 172 339 0 104 -406 458 -604 526 l-57 19 -37 -23 c-43 -28
-90 -76 -126 -129 -44 -66 -72 -82 -146 -82 -136 1 -182 62 -194 259 -21 352
-154 582 -290 502 -72 -42 -117 -169 -99 -279 7 -45 25 -45 94 -2 108 69 237
-24 213 -152 -13 -71 -159 -198 -277 -241 -93 -34 -103 -35 -132 -6 -28 28
-25 44 9 44 29 0 132 35 163 55 25 17 31 55 9 55 -21 0 -94 85 -119 138 -35
76 -32 268 6 336 34 61 34 66 -1 66 -109 0 -265 -93 -311 -185 -36 -72 -18
-279 28 -315 7 -6 28 -38 37 -58 12 -24 -4 -23 -30 1 -14 14 -43 27 -64 30
-21 4 -60 24 -91 47 -32 24 -64 40 -81 40 -15 0 -45 12 -66 27 -60 41 -124 42
-198 4 -33 -17 -68 -31 -79 -31 -21 0 -85 -36 -102 -56 -5 -7 -28 -17 -50 -23
-22 -6 -49 -17 -60 -25 -43 -33 -46 -10 -10 58 61 114 63 260 6 333 -64 80
-206 153 -300 153 -37 0 -37 0 -7 -44 24 -35 56 -155 56 -205 -2 -103 -105
-291 -160 -291 -6 0 -10 -10 -10 -23 0 -33 71 -67 178 -84 35 -6 41 -23 16
-47 -71 -72 -390 128 -409 256 -9 63 10 103 72 146 43 30 89 28 158 -9 74 -39
78 -34 73 83 -4 109 -20 145 -87 195 -50 39 -53 39 -108 12z m981 -493 c17
-13 47 -27 66 -31 45 -9 68 -30 79 -70 9 -34 -3 -149 -19 -177 -6 -10 -10 -26
-10 -37 0 -60 -56 -191 -82 -191 -28 0 -32 23 -15 87 46 176 55 212 61 248 8
54 -3 69 -47 61 -32 -6 -37 -4 -57 29 -27 44 -56 44 -80 0 -18 -32 -45 -44
-63 -26 -15 15 -47 -6 -47 -32 0 -25 28 -152 40 -182 16 -38 32 -110 34 -145
2 -51 -37 -56 -58 -8 -28 62 -86 297 -86 345 0 43 43 93 80 93 16 0 35 6 42
13 54 53 112 61 162 23z m-346 -157 c18 -17 32 -37 32 -45 0 -7 5 -25 12 -41
38 -91 40 -146 5 -141 -24 3 -49 48 -74 132 -12 40 -36 54 -59 35 -9 -8 -33
-19 -53 -24 -23 -7 -44 -23 -59 -45 -12 -19 -33 -39 -46 -45 -68 -29 -68 -38
-6 -116 80 -100 50 -154 -35 -62 -98 105 -106 181 -26 224 19 10 53 36 75 58
23 21 52 42 66 46 14 4 39 18 55 31 41 33 75 30 113 -7z m677 7 c18 -14 44
-28 58 -31 24 -7 87 -60 87 -75 0 -4 10 -10 23 -14 36 -9 87 -65 87 -95 0 -58
-126 -205 -157 -185 -27 17 -26 30 5 66 89 101 93 125 25 153 -18 8 -37 25
-42 37 -5 13 -26 32 -47 42 -22 10 -52 25 -68 32 -35 18 -50 7 -66 -44 -33
-104 -42 -122 -66 -122 -31 0 -41 38 -20 82 8 18 22 56 31 83 29 89 89 117
150 71z m-2167 -259 c59 -60 6 -167 -84 -167 -29 0 -84 65 -84 100 0 89 104
130 168 67z m3661 19 c87 -46 51 -181 -49 -181 -36 0 -47 6 -71 35 -74 88 17
199 120 146z m-2188 -19 c9 -7 24 -30 33 -52 9 -22 24 -53 32 -69 14 -27 13
-31 -5 -49 -31 -32 -47 -13 -100 116 -18 46 6 80 40 54z m634 -7 c17 -19 17
-21 -9 -71 -27 -52 -34 -89 -16 -89 6 0 10 6 11 13 1 29 66 102 90 102 39 0
35 -35 -14 -106 -48 -71 -89 -88 -95 -41 -3 20 -8 23 -29 17 -47 -11 -55 29
-22 103 43 94 55 104 84 72z m-947 -101 c89 -88 92 -92 76 -110 -25 -27 -28
-26 -110 52 -85 81 -104 84 -117 22 -5 -28 -14 -44 -28 -48 -33 -11 -52 -60
-38 -100 11 -29 10 -39 -5 -68 -39 -72 9 -98 134 -73 52 11 98 14 131 10 63
-8 62 0 -9 55 -45 36 -51 44 -42 61 16 29 65 19 100 -19 3 -4 24 -19 47 -34
43 -30 58 -51 46 -70 -3 -5 -7 -29 -7 -51 -1 -48 -29 -60 -72 -31 -38 25 -111
29 -183 11 -102 -26 -143 -22 -186 18 l-37 35 7 118 c7 107 10 121 34 153 15
19 35 56 45 83 11 30 28 53 44 62 53 28 71 20 170 -76z m1407 56 c19 -20 35
-44 35 -55 0 -11 15 -36 33 -56 29 -34 32 -44 34 -111 1 -40 7 -82 14 -94 17
-32 -13 -103 -55 -129 -40 -24 -75 -25 -168 -4 -78 18 -146 14 -181 -11 -52
-37 -77 -19 -82 60 l-3 54 51 39 c104 77 147 90 147 43 0 -19 -81 -91 -101
-91 -5 0 -9 -5 -9 -11 0 -8 15 -10 48 -6 26 3 89 -1 141 -10 123 -20 146 -12
136 50 -3 23 -6 67 -5 98 1 51 -2 59 -30 82 -16 14 -30 35 -30 47 0 76 -34 75
-116 -2 -88 -84 -124 -97 -124 -44 0 15 28 49 85 104 101 97 124 103 180 47z
m-1168 -22 c10 -16 23 -34 30 -41 7 -7 13 -20 13 -28 0 -8 7 -14 16 -14 21 0
15 -49 -8 -64 -32 -19 -127 110 -113 154 9 29 42 25 62 -7z m-603 -110 c-4
-10 -12 -73 -17 -141 -12 -156 14 -218 115 -275 48 -27 48 -34 -4 -42 -23 -4
-49 -11 -58 -15 -8 -5 -49 -25 -90 -45 -264 -127 -581 -390 -793 -655 -37 -47
-83 -104 -102 -128 -105 -132 -385 -624 -385 -676 0 -4 -8 -26 -19 -49 -10
-23 -33 -82 -51 -132 -17 -49 -36 -98 -41 -107 -5 -10 -9 -25 -9 -33 0 -8 -8
-41 -19 -72 -130 -399 -192 -1040 -143 -1469 12 -109 8 -184 -10 -166 -5 5
-13 47 -18 93 -5 46 -14 116 -19 154 -34 247 -40 723 -12 1000 18 181 70 476
111 625 38 141 77 272 90 305 5 11 18 47 29 80 23 70 48 134 86 220 8 17 23
53 35 80 29 69 81 173 106 215 11 19 32 55 46 80 56 101 68 119 131 213 146
214 315 411 483 562 49 44 96 86 104 94 8 8 56 45 105 81 83 61 117 84 223
147 20 12 44 27 52 33 52 37 85 47 74 23z m2014 -6 c20 -13 45 -27 56 -30 116
-43 493 -347 640 -516 46 -53 94 -107 106 -121 61 -68 222 -294 286 -402 96
-162 219 -409 260 -523 9 -27 21 -54 25 -60 25 -35 140 -418 178 -590 10 -49
27 -133 36 -185 9 -52 20 -117 26 -145 79 -408 44 -1177 -76 -1655 -9 -36 -20
-84 -25 -107 -11 -52 -39 -143 -49 -163 -5 -9 -12 -31 -16 -50 -4 -19 -11 -39
-15 -45 -4 -5 -11 -25 -15 -44 -4 -19 -14 -41 -21 -49 -8 -7 -14 -27 -14 -43
0 -16 -4 -29 -10 -29 -12 0 -13 67 -1 74 5 3 12 23 16 43 4 21 10 43 15 48 4
6 10 29 14 53 3 24 10 51 15 60 5 9 14 42 20 72 6 30 18 89 27 130 72 345 105
823 74 1075 -5 44 -14 123 -20 175 -22 212 -51 366 -113 600 -18 67 -93 297
-107 325 -5 11 -19 45 -30 75 -11 30 -27 69 -35 85 -74 158 -121 252 -160 320
-25 44 -51 90 -57 103 -6 12 -15 22 -20 22 -4 0 -8 6 -8 13 0 11 -116 178
-167 242 -215 268 -413 454 -646 607 -56 37 -107 71 -112 75 -39 31 -233 113
-266 113 -31 0 -19 17 31 42 54 28 105 92 113 144 7 42 -7 238 -18 267 -10 25
17 22 63 -6z m-2610 -75 c37 -41 38 -49 16 -96 -46 -95 -186 -66 -186 39 0 96
103 131 170 57z m3286 6 c24 -27 28 -36 23 -72 -16 -121 -187 -114 -187 7 0
100 95 138 164 65z m-1584 -320 c80 -43 80 -95 0 -136 -86 -44 -302 -24 -342
33 -71 98 198 179 342 103z m-538 -37 c34 -30 76 -126 63 -140 -3 -2 -31 16
-62 40 -87 66 -137 89 -235 104 -38 6 -49 18 -25 29 6 3 59 4 117 3 104 -2
106 -3 142 -36z m1066 33 c33 -9 27 -22 -15 -29 -111 -17 -221 -66 -259 -114
-12 -15 -34 -8 -34 11 0 35 48 102 85 119 40 19 173 26 223 13z m-436 -389
c-17 -165 -6 -246 45 -329 91 -146 221 -211 423 -211 185 1 293 62 364 208 38
79 31 82 211 -69 186 -155 318 -305 473 -539 89 -133 237 -412 276 -520 10
-27 24 -63 31 -80 8 -16 23 -61 35 -100 12 -38 26 -79 31 -90 25 -57 79 -300
113 -511 52 -312 40 -856 -25 -1164 -21 -101 -50 -225 -59 -255 -5 -16 -19
-61 -31 -100 -11 -38 -25 -79 -29 -90 -4 -11 -22 -60 -40 -110 -33 -92 -174
-389 -219 -460 -306 -486 -611 -776 -1021 -971 -41 -19 -88 -42 -103 -50 -16
-8 -33 -14 -39 -14 -5 0 -24 -6 -41 -14 -52 -24 -186 -60 -302 -81 -304 -57
-579 -36 -900 67 -103 33 -93 28 -248 103 -784 378 -1359 1328 -1427 2360 -5
88 -13 181 -16 207 -6 48 9 310 27 468 18 160 42 291 83 455 30 121 38 150 46
170 4 11 18 52 30 90 12 39 26 74 31 80 5 5 9 15 9 23 0 7 9 34 21 60 11 26
24 56 29 67 164 385 470 806 735 1011 27 22 58 47 69 56 30 27 96 71 100 67 1
-2 17 -34 35 -71 67 -141 172 -201 351 -202 176 -1 292 42 382 142 85 95 128
255 97 365 -19 69 -25 68 228 65 l228 -3 -3 -30z m-2844 0 c54 -45 50 -124 -7
-158 -58 -34 -121 -13 -141 49 -32 97 72 173 148 109z m5348 9 c58 -39 67 -94
23 -147 -41 -50 -92 -52 -138 -6 -82 81 19 215 115 153z m-5089 -175 c74 -62
33 -174 -62 -174 -78 0 -122 77 -84 146 22 43 108 59 146 28z m1481 9 c18 -18
14 -73 -7 -92 -15 -13 -34 -16 -87 -14 -92 4 -93 24 -4 78 71 43 80 46 98 28z
m1857 -31 c90 -53 86 -77 -15 -77 -79 0 -100 13 -100 64 0 64 24 66 115 13z
m1502 21 c69 -48 50 -158 -31 -173 -66 -13 -116 26 -116 88 0 91 75 133 147
85z m-5242 -1054 c54 -58 12 -164 -64 -164 -99 0 -146 120 -67 175 35 25 103
19 131 -11z m5670 0 c54 -58 12 -164 -64 -164 -99 0 -146 120 -67 175 35 25
103 19 131 -11z m-5801 -515 c63 -75 22 -159 -77 -159 -52 0 -87 41 -87 100 0
85 109 125 164 59z m5921 8 c43 -36 46 -98 7 -137 -72 -72 -186 -10 -166 90
14 66 105 94 159 47z m-5963 -507 c79 -61 44 -170 -53 -170 -51 0 -67 8 -84
41 -50 95 55 194 137 129z m5985 -2 c76 -52 38 -174 -54 -171 -53 2 -82 21
-95 64 -29 97 65 164 149 107z m-5991 -486 c37 -28 46 -91 18 -131 -56 -79
-174 -39 -174 59 0 85 85 124 156 72z m6011 -5 c50 -45 41 -115 -19 -153 -83
-53 -176 46 -128 136 26 49 103 58 147 17z m-5950 -471 c64 -55 22 -166 -63
-166 -49 0 -73 15 -90 57 -41 98 72 179 153 109z m5898 -2 c48 -51 37 -126
-22 -153 -100 -46 -191 72 -118 152 36 38 105 39 140 1z m-5575 -120 c0 -24
-4 -44 -10 -44 -5 0 -10 23 -10 51 0 31 4 48 10 44 6 -3 10 -26 10 -51z m-205
-480 c54 -58 12 -164 -64 -164 -99 0 -146 120 -67 175 35 25 103 19 131 -11z
m5670 0 c54 -58 12 -164 -64 -164 -99 0 -146 120 -67 175 35 25 103 19 131
-11z m-515 -219 c0 -14 -4 -25 -10 -25 -5 0 -10 11 -10 25 0 14 5 25 10 25 6
0 10 -11 10 -25z m-4933 -348 c31 -28 39 -77 19 -115 -44 -85 -170 -60 -183
35 -12 90 96 142 164 80z m5222 -3 c51 -64 6 -164 -74 -164 -93 0 -129 128
-51 182 28 20 104 8 125 -18z m-4896 -579 c65 -61 13 -175 -80 -175 -31 0 -83
65 -83 105 0 82 102 126 163 70z m4558 5 c56 -41 44 -131 -22 -166 -80 -41
-167 53 -125 134 29 55 94 69 147 32z m-531 -566 c64 -62 13 -171 -76 -161
-60 6 -89 37 -89 92 0 93 97 133 165 69z m-3485 1 c58 -57 12 -165 -70 -165
-84 0 -129 120 -65 172 34 28 105 24 135 -7z m736 -454 c22 -23 29 -39 29 -69
0 -110 -151 -131 -190 -26 -16 40 -12 54 24 90 45 45 95 47 137 5z m2010 0
c22 -23 29 -39 29 -69 0 -110 -151 -131 -190 -26 -16 40 -12 54 24 90 45 45
95 47 137 5z m-1082 -222 c80 -79 -22 -214 -115 -153 -58 39 -67 94 -23 147
41 50 92 52 138 6z M9669 7096 c-2 -2 -56 -9 -119 -16 -63 -6 -131 -16 -150
-20 -19 -5 -73 -19 -120 -30 -78 -20 -141 -39 -230 -73 -186 -69 -434 -241
-553 -383 -100 -118 -217 -315 -241 -404 -4 -14 -11 -34 -16 -45 -17 -40 -39
-122 -50 -185 -7 -36 -16 -85 -20 -110 -15 -79 -12 -220 4 -220 8 0 18 5 21
10 4 6 23 20 43 31 49 27 88 50 225 134 l114 70 6 160 c3 88 10 176 17 195 41
117 55 151 82 205 83 161 250 310 422 376 28 11 60 24 71 29 53 24 255 66 340
72 59 4 59 4 30 -147 -22 -114 -39 -206 -60 -320 -10 -49 -23 -121 -30 -160
-79 -417 -107 -574 -196 -1085 -33 -195 -67 -386 -75 -425 -7 -38 -20 -104
-28 -145 -16 -83 -37 -173 -60 -265 -8 -33 -20 -80 -26 -105 -61 -244 -155
-391 -295 -459 -70 -35 -123 -41 -330 -41 -6 0 -44 -39 -85 -86 -41 -48 -110
-126 -152 -174 -43 -48 -78 -93 -78 -99 0 -18 26 -20 640 -51 107 -5 238 -14
290 -20 52 -5 165 -12 250 -16 l155 -6 100 128 c55 70 117 147 138 171 20 24
37 50 37 57 0 19 -404 45 -697 46 -104 0 -109 4 -55 51 166 147 441 461 442
505 0 5 9 20 20 34 19 24 120 223 120 236 0 3 6 20 14 37 26 60 45 122 55 177
6 30 17 92 26 138 16 87 33 179 60 327 9 50 22 126 30 170 9 44 22 121 31 170
9 50 22 125 30 168 8 42 20 112 28 155 14 78 37 203 61 342 7 41 27 152 45
245 47 261 59 324 71 402 13 83 13 83 134 82 134 -1 229 -23 352 -85 142 -72
255 -187 312 -319 12 -27 26 -57 30 -66 23 -42 34 -194 22 -319 -28 -306 -129
-560 -290 -733 -81 -88 -265 -203 -351 -222 -19 -4 -39 -10 -45 -14 -14 -10
-176 -39 -257 -46 l-68 -7 -35 -71 c-52 -104 -56 -100 93 -94 206 9 362 43
551 122 62 26 118 54 126 61 7 8 17 14 21 14 12 0 113 70 194 134 318 252 530
664 530 1029 0 440 -273 688 -835 757 -44 6 -119 15 -166 20 -81 9 -661 15
-670 6z M8910 9483 c-60 -41 -64 -74 -17 -128 26 -30 37 -36 55 -31 28 9 28
23 1 52 l-21 23 22 31 c22 31 22 32 4 51 -19 18 -21 18 -44 2z M10691 9487
c-15 -15 -14 -38 4 -65 15 -20 14 -24 -7 -52 -24 -33 -16 -49 24 -50 20 0 68
66 68 93 0 45 -64 99 -89 74z M6679 7560 c-111 -59 -173 -186 -167 -342 5
-129 33 -185 123 -243 52 -34 165 -28 205 10 102 97 72 255 -49 255 -36 0 -61
-28 -61 -68 0 -35 26 -57 51 -41 19 12 56 11 64 -1 19 -31 -36 -80 -89 -80
-47 0 -96 60 -96 116 0 49 4 58 53 147 15 26 39 68 54 95 14 26 37 64 50 84
12 21 23 44 23 52 0 38 -100 48 -161 16z M12815 7566 c-19 -14 -6 -76 16 -76
5 0 9 -5 9 -11 0 -6 28 -59 63 -118 35 -58 68 -119 75 -134 51 -117 -69 -229
-160 -149 -57 51 -31 72 59 46 45 -13 56 83 11 107 -32 17 -84 2 -113 -33 -43
-51 -34 -154 17 -205 68 -67 194 -58 273 21 140 140 79 452 -107 547 -43 22
-116 25 -143 5z M6891 7484 c-12 -19 -21 -38 -21 -41 0 -2 -10 -19 -22 -36
-49 -69 -51 -76 -17 -95 65 -35 94 -58 104 -80 15 -35 37 -22 68 41 l29 58
-18 57 c-16 51 -74 132 -94 132 -4 0 -17 -16 -29 -36z M12690 7503 c-72 -86
-85 -152 -48 -233 17 -36 32 -67 34 -69 2 -3 20 14 39 36 19 23 55 49 80 59
56 24 56 29 -9 134 -55 89 -72 102 -96 73z M4290 4919 c-36 -5 -87 -17 -115
-27 l-50 -18 1 -85 c3 -183 15 -525 20 -546 4 -21 10 -23 77 -23 75 0 254 -22
317 -39 58 -16 193 -59 227 -73 42 -16 53 -5 71 65 7 29 19 77 27 107 7 30 21
80 30 110 9 30 23 80 30 110 8 30 21 82 30 115 31 112 31 120 -7 148 -163 123
-430 186 -658 156z M14945 4860 c-118 -26 -275 -94 -345 -149 -27 -21 -24 -56
14 -191 8 -30 28 -105 43 -167 16 -62 32 -115 36 -119 4 -4 7 -15 7 -25 0 -10
6 -38 14 -61 8 -24 17 -55 20 -70 7 -29 24 -35 54 -19 16 9 98 37 172 59 90
26 203 44 318 50 l126 7 7 35 c4 19 10 164 13 322 l7 287 -23 15 c-69 45 -314
58 -463 26z M3858 4760 c-15 -4 -64 -28 -109 -51 -186 -99 -307 -271 -363
-519 -22 -98 -49 -357 -42 -399 4 -20 11 -65 17 -101 15 -101 41 -203 56 -221
7 -8 13 -25 13 -37 0 -12 5 -22 10 -22 7 0 8 22 4 63 -33 332 221 661 559 722
43 8 41 -3 22 160 -8 66 -22 180 -30 254 -8 74 -20 140 -26 148 -12 14 -68 16
-111 3z M15585 4718 c-3 -7 -9 -51 -15 -98 -20 -163 -41 -325 -48 -382 -10
-74 -3 -84 63 -98 31 -6 68 -18 83 -26 15 -8 30 -14 34 -14 15 0 154 -90 196
-126 128 -109 213 -298 213 -469 0 -126 18 -165 38 -82 5 23 20 83 32 132 38
154 27 512 -20 630 -4 11 -18 52 -31 90 -49 150 -134 263 -267 353 -114 77
-265 126 -278 90z M4060 4112 c-221 -40 -417 -192 -494 -382 -24 -58 -34 -293
-16 -383 17 -89 58 -203 93 -261 68 -111 112 -154 392 -375 77 -61 172 -135
210 -166 39 -31 144 -115 235 -187 91 -71 176 -139 189 -151 14 -11 54 -43 91
-71 36 -28 88 -69 115 -91 82 -66 253 -236 308 -305 28 -36 54 -67 57 -70 3
-3 17 -23 30 -45 13 -22 26 -42 29 -45 8 -6 36 -65 55 -112 56 -140 95 -448
66 -524 -23 -61 21 -27 60 46 71 133 97 192 130 290 66 198 69 398 8 615 -11
39 -24 86 -29 105 -6 19 -17 49 -25 67 -8 17 -14 37 -14 45 -1 19 -93 200
-136 267 -84 128 -385 386 -627 535 -167 103 -314 228 -406 346 -194 247 -119
628 149 756 90 44 95 51 43 59 -21 4 -49 11 -63 16 -88 31 -329 43 -450 21z
M15225 4074 c-63 -6 -207 -36 -242 -51 -37 -15 -44 -33 -13 -33 30 0 117 -50
170 -97 118 -106 176 -362 120 -530 -45 -137 -202 -306 -411 -444 -41 -26 -78
-52 -84 -56 -5 -5 -28 -19 -50 -33 -89 -54 -355 -262 -453 -355 -101 -95 -209
-275 -262 -435 -12 -36 -25 -74 -30 -85 -82 -188 -97 -575 -29 -707 5 -10 9
-23 9 -29 0 -18 83 -196 136 -291 23 -43 43 -61 44 -40 0 4 2 72 4 152 7 284
71 453 257 675 101 122 202 213 444 404 50 39 95 74 100 79 6 4 42 32 80 62
39 30 76 61 84 68 7 7 48 40 90 72 99 78 307 243 376 299 11 9 52 40 90 70
156 119 315 318 315 393 0 9 4 19 9 22 5 4 12 30 16 59 4 28 12 60 17 70 14
27 12 248 -2 294 -69 218 -212 372 -400 428 -30 9 -68 20 -85 25 -34 10 -239
20 -300 14z M2190 3170 c-150 -25 -265 -64 -255 -88 3 -9 12 -44 20 -77 25
-110 35 -150 45 -185 5 -19 46 -181 90 -359 44 -178 82 -326 85 -329 2 -3 76
-6 162 -7 124 -1 166 -5 195 -18 28 -13 38 -14 45 -4 13 17 84 248 98 317 4
19 11 40 15 45 4 6 11 26 15 45 3 19 13 53 20 75 7 22 21 67 30 100 19 72 62
212 83 278 21 62 15 70 -84 120 -170 86 -374 118 -564 87z M17120 3130 c-14
-4 -41 -8 -61 -9 -71 -2 -271 -77 -333 -125 -19 -16 -17 -85 3 -111 5 -5 13
-30 19 -55 11 -46 16 -64 72 -250 17 -58 37 -126 43 -152 7 -25 15 -50 20 -54
4 -4 7 -15 7 -24 0 -9 9 -48 20 -86 68 -228 62 -219 140 -197 61 17 223 23
286 9 47 -9 47 -9 70 87 8 31 20 83 28 115 8 31 19 77 25 102 6 25 15 61 21
80 5 19 32 130 60 245 28 116 54 224 59 240 24 77 24 103 -1 116 -82 44 -408
91 -478 69z M1480 3004 c-68 -15 -69 -15 -165 -59 -85 -39 -209 -166 -254
-259 -184 -385 83 -829 697 -1157 86 -45 95 -42 85 34 -20 155 -2 296 50 393
20 38 93 102 124 110 39 10 39 47 0 168 -20 61 -51 156 -68 211 -17 55 -34
107 -39 115 -4 9 -11 31 -15 50 -4 19 -11 41 -16 50 -4 8 -18 49 -30 90 -68
237 -73 247 -131 259 -65 14 -158 12 -238 -5z M2985 3008 c-2 -7 -20 -65 -40
-128 -20 -63 -40 -122 -45 -130 -4 -9 -11 -31 -14 -50 -4 -19 -11 -44 -16 -55
-4 -11 -29 -87 -56 -170 -26 -82 -64 -204 -86 -269 -21 -66 -37 -125 -35 -130
3 -6 35 -27 72 -46 77 -40 156 -120 188 -190 36 -78 20 -333 -32 -506 -8 -30
4 -73 15 -49 2 6 47 71 99 145 52 74 99 142 105 150 6 8 45 65 88 125 203 287
204 289 233 408 44 183 16 408 -73 575 -52 97 -75 128 -149 192 -41 36 -76 67
-79 70 -46 50 -165 89 -175 58z M16510 2971 c-48 -15 -114 -63 -205 -152 -90
-87 -93 -92 -176 -261 -5 -10 -14 -37 -19 -60 -6 -24 -16 -61 -21 -83 -14 -54
-6 -352 9 -367 7 -7 12 -20 12 -31 0 -31 47 -117 115 -212 35 -49 84 -119 109
-155 25 -36 72 -103 105 -150 33 -47 85 -122 117 -167 31 -46 60 -83 65 -83 5
0 9 -7 9 -15 0 -8 5 -15 10 -15 12 0 13 32 1 46 -10 11 -35 145 -56 295 -15
113 -7 183 32 254 30 57 132 151 189 175 57 24 69 52 45 98 -6 9 -20 51 -31
92 -12 41 -39 127 -60 190 -21 63 -47 149 -59 190 -12 41 -26 82 -30 90 -5 9
-12 31 -16 50 -4 19 -11 41 -16 50 -4 8 -17 49 -29 90 -39 138 -46 147 -100
131z M17835 2963 c-45 -7 -49 -13 -94 -156 -23 -72 -46 -139 -50 -147 -5 -9
-12 -31 -15 -50 -4 -19 -11 -44 -16 -55 -4 -11 -32 -94 -61 -185 -28 -91 -63
-197 -76 -237 -30 -92 -31 -88 23 -114 148 -74 222 -328 159 -545 -23 -78 291
100 504 285 232 201 336 398 336 631 0 187 -35 274 -159 395 -150 148 -339
209 -551 178z M1040 1898 c-53 -24 -86 -37 -110 -44 -159 -46 -536 -262 -723
-414 -32 -26 -101 -123 -125 -175 -13 -27 -27 -57 -32 -66 -4 -9 -12 -37 -15
-63 -4 -26 -14 -50 -21 -53 -20 -8 -20 -358 -1 -366 9 -3 16 -29 20 -67 4 -34
10 -67 14 -73 5 -7 13 -32 18 -57 13 -60 20 -57 77 26 167 246 358 388 581
431 28 5 39 -20 18 -42 -41 -45 -58 -301 -26 -412 68 -241 282 -463 445 -463
35 0 36 2 11 49 -53 99 -56 112 -56 241 0 122 1 127 34 192 84 168 308 356
457 384 19 3 37 10 40 15 3 5 13 9 23 9 31 0 216 99 248 133 36 37 73 104 73
130 0 10 4 27 10 37 10 18 -29 59 -57 60 -4 1 -26 9 -48 20 -22 11 -43 19 -47
20 -4 0 -37 18 -73 40 -36 22 -68 40 -71 40 -7 0 -247 160 -254 169 -3 4 -23
20 -45 36 -22 16 -69 54 -105 85 -36 30 -78 66 -95 80 -16 14 -49 44 -73 68
-46 45 -53 47 -92 30z M4914 1859 c75 -264 13 -443 -209 -611 -64 -48 -189
-112 -241 -123 -61 -12 -63 -17 -74 -291 -5 -137 -14 -303 -20 -369 -5 -66
-11 -163 -12 -215 l-3 -95 45 -3 c64 -5 249 39 285 68 6 4 21 11 34 15 22 7
160 87 186 107 6 5 33 25 60 45 109 81 254 220 262 252 3 14 16 44 27 66 69
131 94 295 71 476 -9 68 -20 135 -25 149 -4 14 -11 38 -15 54 -21 97 -115 240
-255 389 -93 99 -127 124 -116 86z M18425 1819 c-58 -60 -215 -188 -396 -324
-55 -41 -262 -166 -310 -188 -84 -38 -133 -57 -145 -57 -47 0 11 -167 78 -224
49 -42 200 -117 293 -146 222 -68 423 -255 490 -453 30 -91 12 -256 -40 -353
-31 -59 -24 -67 47 -50 163 38 311 196 388 415 41 116 35 355 -11 437 -16 30
-18 39 -7 45 15 10 88 1 102 -12 6 -5 17 -9 26 -9 58 0 269 -145 348 -239 26
-31 56 -66 67 -78 11 -12 38 -52 60 -87 22 -36 43 -65 47 -66 26 -1 64 150 80
317 30 331 -48 539 -262 698 -96 72 -206 145 -218 145 -4 0 -18 9 -32 20 -29
22 -260 138 -340 170 -30 12 -68 28 -85 35 -38 16 -123 45 -133 45 -5 0 -26
-18 -47 -41z M14533 1731 c-237 -250 -304 -408 -304 -724 -1 -157 26 -277 83
-372 10 -16 18 -38 18 -49 0 -20 26 -46 170 -170 213 -183 407 -283 596 -308
105 -13 115 -7 104 69 -4 27 -11 142 -15 258 -3 116 -11 248 -15 295 -5 47
-10 132 -11 190 -2 131 -7 146 -55 154 -20 4 -44 11 -53 15 -9 5 -34 16 -56
27 -154 71 -328 236 -351 331 -4 15 -10 33 -15 38 -23 30 -20 154 8 313 8 47
-2 40 -104 -67z M3389 1742 c-15 -24 -62 -92 -145 -209 -16 -22 -36 -51 -44
-63 -8 -13 -33 -48 -55 -79 -22 -31 -58 -83 -80 -116 -22 -33 -58 -85 -80
-116 -22 -31 -47 -66 -55 -79 -8 -12 -27 -40 -42 -61 -34 -47 -36 -93 -8 -173
106 -309 388 -570 695 -643 185 -44 601 -74 619 -44 3 5 10 58 16 117 11 108
23 235 56 559 9 94 18 186 18 205 l1 34 -90 24 c-49 13 -108 28 -130 33 -22 5
-49 14 -60 19 -11 5 -45 19 -75 31 -272 112 -450 296 -493 513 -15 79 -25 88
-48 48z M16125 1707 c-2 -6 -6 -35 -9 -64 -11 -115 -104 -259 -231 -362 -76
-61 -274 -165 -335 -177 -19 -4 -39 -10 -45 -15 -13 -9 -176 -49 -203 -49 -29
0 -33 -22 -22 -130 5 -52 14 -149 20 -215 6 -66 14 -151 20 -190 5 -38 12
-117 16 -175 3 -58 12 -130 18 -160 l13 -55 224 1 c229 0 282 6 429 50 201 60
387 194 519 373 78 107 108 168 159 336 11 37 0 60 -103 205 -41 58 -104 148
-139 200 -36 52 -97 140 -135 195 -39 55 -90 130 -115 166 -44 66 -73 90 -81
66z"/>
</g>
</svg>
