<?xml version="1.0" standalone="no"?>
<!DOCTYPE svg PUBLIC "-//W3C//DTD SVG 20010904//EN"
 "http://www.w3.org/TR/2001/REC-SVG-20010904/DTD/svg10.dtd">
<svg version="1.0" xmlns="http://www.w3.org/2000/svg"
 width="1956.000000pt" height="1047.000000pt" viewBox="0 0 1956.000000 1047.000000"
 preserveAspectRatio="xMidYMid meet">
<metadata>
Created by potrace 1.16, written by Peter Selinger 2001-2019
</metadata>
<g transform="translate(0.000000,1047.000000) scale(0.100000,-0.100000)"
fill="#641D18" stroke="none">
<path d="M9508 10459 c-2 -6 -55 -16 -118 -24 -159 -19 -445 -77 -515 -105
-11 -5 -45 -16 -75 -24 -63 -19 -248 -84 -270 -95 -8 -4 -55 -25 -105 -46
-176 -75 -428 -215 -600 -334 -85 -58 -263 -191 -286 -213 -8 -7 -50 -43 -94
-80 -85 -70 -366 -353 -450 -453 -154 -181 -376 -489 -451 -624 -11 -18 -23
-41 -29 -50 -64 -105 -133 -230 -179 -326 -57 -117 -116 -246 -116 -252 0 -3
-10 -27 -21 -52 -30 -64 -35 -77 -65 -156 -30 -80 -123 -355 -135 -400 -65
-239 -92 -352 -124 -525 -14 -74 -30 -157 -35 -185 -16 -76 -33 -231 -60 -545
-13 -157 -13 -595 0 -709 6 -47 15 -142 20 -211 16 -195 41 -363 85 -580 9
-41 20 -96 25 -123 5 -26 14 -63 21 -82 26 -70 6 -60 -134 66 -126 113 -251
214 -331 269 -37 25 -72 50 -79 55 -21 17 -101 53 -134 60 -95 19 -177 -62
-221 -220 -6 -22 -18 -65 -26 -95 -39 -139 -58 -209 -71 -255 -32 -113 -33
-108 38 -145 61 -31 154 -115 211 -189 74 -95 135 -228 170 -369 14 -55 36
-239 36 -299 0 -42 27 -24 91 62 l63 86 81 67 c44 37 82 69 85 72 35 35 289
170 321 170 8 0 19 4 24 9 10 9 38 15 62 12 14 -1 47 -86 40 -103 -4 -12 -23
-20 -132 -62 -129 -49 -251 -130 -365 -245 l-96 -96 -48 -80 -49 -80 -5 -41
-4 -41 17 -39 c73 -168 159 -310 263 -439 74 -91 188 -202 215 -211 l19 -6 56
39 c100 67 220 198 411 446 45 59 86 107 91 107 5 0 19 -17 31 -37 13 -21 27
-40 31 -41 4 -2 8 -9 8 -14 0 -22 -276 -378 -402 -519 l-68 -76 17 -34 c18
-36 114 -168 172 -234 116 -134 448 -435 479 -435 13 0 318 286 409 384 35 36
68 66 74 66 15 0 69 -56 69 -72 0 -8 -18 -32 -41 -53 -22 -22 -73 -80 -113
-130 -130 -161 -206 -296 -206 -366 l0 -31 83 -85 c117 -121 246 -216 487
-359 216 -129 406 -213 620 -273 41 -12 91 -26 110 -32 57 -16 163 -34 350
-59 194 -26 474 6 665 77 144 53 336 165 399 232 17 17 36 31 44 31 8 0 42
-24 75 -53 131 -114 312 -215 467 -262 134 -40 180 -50 320 -67 98 -11 359 -4
440 12 161 33 240 52 290 67 73 21 217 72 257 89 17 8 33 14 36 14 2 0 54 23
113 51 60 28 147 69 194 91 47 22 93 44 103 49 10 5 44 24 75 40 232 125 345
218 409 338 21 39 16 61 -46 181 -93 183 -135 248 -233 356 -21 23 -38 45 -38
51 0 14 74 83 89 83 7 0 107 -91 222 -202 115 -112 219 -205 231 -206 11 -2
35 6 52 19 78 57 302 257 349 312 29 33 70 81 93 106 56 63 126 157 155 208
l24 43 -10 14 c-5 7 -55 67 -110 132 -55 65 -118 142 -140 170 -140 181 -165
214 -165 224 0 14 61 100 71 100 3 0 13 -10 22 -22 8 -13 25 -34 37 -48 12
-14 30 -36 39 -50 9 -14 26 -36 37 -50 160 -188 208 -241 250 -276 55 -46 128
-94 143 -94 19 0 143 124 216 215 121 150 189 265 269 448 24 55 21 70 -31
169 l-47 90 -74 79 c-116 124 -260 222 -425 288 -15 6 -30 17 -33 25 -5 14 18
76 38 102 l9 12 70 -30 c170 -71 347 -201 457 -336 35 -42 70 -89 78 -104 28
-54 44 -29 44 65 0 83 45 319 69 365 5 9 19 42 31 72 45 112 152 250 244 315
15 11 34 25 40 30 7 6 30 20 52 32 l39 22 -2 28 c-1 15 -7 37 -12 48 -5 11
-14 38 -19 60 -35 141 -65 253 -72 270 -5 11 -12 36 -16 55 -3 19 -10 41 -14
50 -48 101 -64 123 -112 153 -59 36 -140 14 -270 -76 -86 -59 -132 -91 -138
-97 -3 -3 -43 -37 -90 -75 -47 -38 -98 -82 -115 -97 -16 -15 -33 -24 -38 -19
-5 5 -2 37 7 72 44 183 100 543 119 769 l12 145 -1 350 0 350 -17 170 c-32
317 -44 390 -123 765 -41 197 -156 571 -229 745 -7 17 -21 53 -30 80 -10 28
-22 55 -26 60 -4 6 -17 35 -29 65 -28 72 -182 379 -226 451 -19 31 -34 60 -34
63 0 4 -20 37 -45 75 -25 38 -45 71 -45 74 0 23 -250 367 -379 522 -121 145
-426 448 -556 553 -66 52 -140 112 -165 132 -53 42 -286 200 -295 200 -4 0
-20 9 -36 21 -71 50 -376 203 -519 260 -30 12 -69 28 -87 35 -17 8 -38 14 -46
14 -9 0 -18 4 -21 9 -3 5 -23 12 -43 16 -21 4 -42 10 -48 15 -5 4 -30 12 -55
18 -25 6 -79 20 -120 32 -41 12 -95 26 -120 30 -25 5 -81 16 -125 25 -44 9
-132 22 -195 30 -63 7 -116 18 -118 24 l-4 11 -318 0 -318 0 -4 -11z m632
-378 c69 -6 148 -15 175 -21 28 -5 100 -19 160 -31 61 -12 119 -25 130 -29 11
-5 36 -12 55 -15 19 -4 94 -26 165 -50 138 -46 188 -65 290 -110 17 -8 53 -23
80 -35 68 -29 114 -51 155 -76 19 -11 55 -32 80 -46 87 -48 115 -66 170 -101
64 -42 273 -189 280 -197 3 -3 39 -32 80 -65 97 -75 459 -437 536 -535 32 -41
69 -86 81 -100 13 -14 23 -28 23 -32 0 -3 6 -13 13 -20 27 -26 176 -244 232
-338 21 -36 43 -66 47 -68 4 -2 8 -8 8 -14 0 -6 15 -36 34 -67 35 -58 216
-414 216 -426 0 -3 11 -30 24 -58 13 -29 40 -95 60 -147 20 -52 40 -102 45
-110 5 -9 12 -31 16 -50 4 -19 11 -39 15 -45 4 -5 11 -26 15 -45 4 -19 11 -41
16 -50 8 -13 33 -102 75 -260 21 -79 81 -369 99 -475 120 -728 81 -1496 -113
-2235 -35 -132 -140 -450 -153 -464 -5 -6 -9 -16 -9 -24 0 -7 -9 -34 -21 -60
-11 -26 -25 -58 -31 -72 -5 -14 -16 -38 -23 -55 -8 -16 -23 -52 -35 -80 -39
-90 -150 -309 -170 -335 -11 -14 -20 -29 -20 -34 0 -12 -126 -220 -185 -306
-92 -133 -109 -156 -180 -247 -114 -146 -171 -209 -345 -383 -221 -221 -406
-373 -613 -502 -37 -24 -87 -55 -110 -70 -23 -15 -71 -42 -107 -60 -36 -19
-92 -48 -125 -65 -33 -17 -89 -45 -125 -61 -36 -16 -86 -39 -113 -50 -26 -12
-56 -22 -65 -22 -10 0 -22 -4 -27 -9 -14 -13 -244 -85 -385 -121 -37 -9 -141
-29 -300 -56 l-95 -17 -280 -3 c-154 -1 -316 1 -360 7 -121 14 -262 36 -340
53 -38 8 -92 20 -120 25 -27 6 -61 15 -75 20 -14 5 -52 17 -85 26 -93 26 -244
81 -330 120 -16 8 -52 23 -80 35 -237 101 -568 311 -825 523 -97 80 -351 328
-402 392 -22 28 -57 68 -77 90 -99 107 -319 417 -433 610 -39 67 -232 446
-259 510 -4 11 -17 43 -29 70 -11 28 -25 58 -30 67 -6 10 -10 23 -10 29 0 6
-7 25 -15 42 -28 62 -115 323 -115 346 0 9 -4 21 -9 27 -5 5 -14 29 -19 54 -6
25 -18 72 -27 105 -68 263 -113 524 -146 860 l-12 120 0 360 c0 198 5 407 11
465 21 197 59 464 76 535 3 11 15 65 27 120 12 55 31 134 41 175 11 41 24 93
29 115 6 22 16 58 23 80 8 22 29 87 46 145 18 58 36 110 40 115 4 6 15 35 24
65 18 56 33 92 67 166 10 23 19 44 19 47 0 15 131 288 191 397 105 192 266
439 388 595 39 50 89 114 112 144 54 70 312 335 409 420 256 224 487 382 775
531 61 31 151 74 200 94 50 21 98 42 107 47 10 5 23 9 30 9 7 0 25 6 40 14 15
8 41 17 59 21 19 4 40 11 49 16 15 9 153 46 275 75 83 20 213 42 320 54 50 6
126 14 170 19 96 11 352 7 525 -8z M8903 9819 l-41 -20 -28 -42 c-74 -109
-104 -223 -124 -470 l-9 -118 -21 -29 c-12 -17 -38 -42 -57 -57 l-36 -28 -69
0 -69 0 -42 46 c-23 25 -63 71 -89 101 -26 30 -62 62 -81 71 l-34 17 -49 -17
c-60 -20 -154 -77 -254 -153 -103 -78 -282 -250 -320 -308 l-32 -47 6 -43 c8
-61 38 -120 131 -262 45 -69 90 -143 101 -165 l18 -39 1 -56 0 -55 -23 -33
c-48 -67 -140 -89 -232 -55 -37 14 -110 60 -130 83 -15 18 -112 69 -159 84
l-53 17 -29 -6 c-16 -4 -56 -25 -89 -47 l-60 -39 -62 -77 c-100 -123 -286
-407 -275 -418 2 -3 51 -5 108 -7 l104 -2 50 -33 c102 -68 155 -193 155 -366
0 -239 -90 -392 -267 -452 l-45 -15 -122 0 -122 1 -16 -13 c-9 -6 -21 -34 -28
-62 -19 -84 -40 -187 -50 -255 -6 -36 -15 -85 -20 -110 -6 -25 -15 -88 -20
-140 -6 -52 -12 -102 -15 -110 -2 -8 -9 -125 -15 -260 l-10 -245 10 -240 c5
-131 15 -275 21 -320 23 -166 40 -277 68 -430 14 -77 71 -308 80 -325 5 -9 12
-36 16 -60 4 -24 11 -51 16 -60 4 -8 24 -64 44 -125 20 -60 42 -123 49 -140 7
-16 22 -52 31 -80 10 -27 22 -54 25 -60 4 -5 11 -21 15 -35 20 -63 148 -327
210 -430 25 -41 50 -86 57 -100 14 -26 42 -71 116 -185 43 -65 188 -264 202
-275 3 -3 23 -27 45 -55 153 -194 484 -500 712 -658 86 -60 268 -168 369 -220
89 -46 221 -107 231 -107 3 0 19 -6 36 -14 118 -51 219 -84 278 -92 l47 -6 38
12 c48 16 129 65 169 102 l30 28 13 -14 c7 -7 18 -32 23 -54 13 -59 62 -134
101 -154 l33 -18 168 -10 167 -10 193 11 192 10 33 25 c42 33 59 59 87 139 12
36 25 68 28 71 2 3 33 -17 68 -43 35 -27 82 -57 104 -68 l40 -19 60 0 60 1 75
26 c73 25 102 36 167 63 17 8 33 14 36 14 12 0 190 84 275 129 43 23 248 145
252 150 3 3 43 32 90 63 47 32 95 66 105 76 11 9 49 40 85 67 100 75 445 426
552 560 112 141 218 294 316 457 67 111 240 453 277 548 10 25 21 54 26 65 42
96 118 327 170 510 65 233 114 511 146 825 l17 165 0 260 c1 251 -14 531 -34
645 -6 30 -21 125 -35 210 -14 85 -32 187 -41 225 -8 39 -18 82 -21 98 -3 15
-13 32 -23 37 -10 6 -72 9 -137 9 l-119 -1 -45 15 c-24 8 -64 26 -88 39 l-44
23 -41 55 c-54 70 -77 132 -87 234 l-8 81 10 90 c16 152 62 241 153 297 l51
31 102 5 101 5 -29 56 c-80 151 -217 339 -315 431 l-70 66 -48 18 -49 19 -54
-17 c-63 -20 -143 -65 -192 -109 -19 -16 -59 -40 -88 -53 l-54 -24 -47 0 -47
0 -40 23 c-22 12 -50 38 -62 56 l-23 34 0 44 c0 24 4 51 9 61 4 9 16 35 27 57
10 22 33 62 52 90 105 149 172 283 172 339 l0 29 -52 70 c-72 97 -313 301
-449 380 -25 15 -71 36 -103 47 l-57 19 -37 -23 c-43 -28 -90 -76 -126 -129
-14 -21 -38 -48 -53 -60 l-28 -22 -65 0 -65 1 -43 27 -43 28 -18 42 -18 42 -7
119 c-17 286 -102 484 -224 521 l-23 7 -43 -26 -43 -25 -26 -53 c-28 -57 -40
-140 -30 -201 l6 -38 24 6 c14 3 42 17 64 30 l39 25 38 0 39 0 41 -30 41 -29
11 -41 c6 -22 8 -57 4 -77 l-7 -37 -50 -54 c-81 -85 -191 -150 -299 -176 l-27
-6 -26 26 c-28 28 -25 44 9 44 29 0 132 35 163 55 25 17 31 55 9 55 -21 0 -94
85 -119 138 l-22 47 0 120 1 120 27 49 c15 27 27 53 27 57 0 23 -102 1 -195
-41 -59 -27 -117 -81 -144 -135 l-24 -47 6 -92 5 -91 17 -40 c10 -22 20 -42
24 -45 7 -6 28 -38 37 -58 12 -24 -4 -23 -30 1 -14 14 -43 27 -64 30 l-37 6
-54 41 -53 40 -28 0 c-15 0 -45 12 -66 27 l-39 26 -50 4 -50 4 -59 -30 c-33
-17 -68 -31 -79 -31 -21 0 -85 -36 -102 -56 -5 -7 -28 -17 -50 -23 -22 -6 -49
-17 -60 -25 -43 -33 -46 -10 -10 58 14 26 32 81 40 121 l16 75 -15 54 c-27
104 -109 176 -253 220 -49 15 -113 22 -113 11 0 -2 11 -20 24 -39 24 -35 56
-155 56 -205 -1 -37 -32 -139 -57 -187 -22 -40 -85 -104 -103 -104 -6 0 -10
-10 -10 -23 l0 -22 33 -18 c35 -19 88 -35 145 -44 35 -6 41 -23 16 -47 -50
-50 -234 32 -348 154 l-55 60 -6 42 c-9 63 10 103 72 146 l31 22 35 0 34 0 58
-31 57 -31 10 10 10 10 -4 94 -4 94 -20 34 c-20 36 -96 100 -117 100 -7 0 -31
-9 -54 -21z m981 -493 c17 -13 47 -27 66 -31 45 -9 68 -30 79 -70 l8 -31 -9
-65 c-4 -35 -13 -72 -18 -81 -6 -10 -10 -26 -10 -37 0 -22 -35 -136 -52 -168
-13 -26 -46 -31 -54 -8 -3 8 1 40 9 72 46 176 55 212 61 248 3 22 2 46 -3 54
l-9 14 -35 -7 -35 -7 -22 36 -22 36 -21 -3 c-11 -2 -28 -16 -37 -33 -18 -32
-45 -44 -63 -26 l-10 10 -19 -10 c-10 -5 -18 -20 -18 -32 0 -25 28 -152 40
-182 16 -38 32 -110 34 -145 l1 -35 -22 -3 -23 -3 -14 33 c-28 62 -86 297 -86
345 l0 31 26 31 26 31 28 0 c16 0 35 6 42 13 31 31 65 47 97 47 l34 0 31 -24z
m-346 -157 c18 -17 32 -37 32 -45 0 -7 5 -25 12 -41 19 -47 34 -107 30 -126
l-4 -18 -21 3 c-24 3 -49 48 -74 132 -5 16 -16 34 -25 40 l-16 10 -18 -15 c-9
-8 -33 -19 -53 -24 l-36 -11 -23 -34 c-12 -19 -33 -39 -46 -45 -28 -12 -56
-35 -56 -46 0 -4 23 -36 50 -70 l51 -63 -3 -21 c-2 -11 -11 -21 -21 -23 l-17
-3 -45 48 c-25 26 -55 66 -67 89 l-22 42 15 37 14 38 34 18 c19 10 53 36 75
58 23 21 52 42 66 46 14 4 39 18 55 31 17 13 42 24 56 24 l25 0 32 -31z m677
7 c18 -14 44 -28 58 -31 24 -7 87 -60 87 -75 0 -4 10 -10 23 -14 12 -3 37 -19
55 -37 l32 -31 0 -27 c0 -33 -44 -101 -100 -156 l-41 -40 -16 11 c-27 17 -26
30 5 66 16 18 41 51 56 72 l26 39 -12 14 c-6 8 -26 20 -45 28 -18 8 -37 25
-42 37 -5 13 -26 32 -47 42 -22 10 -52 25 -68 32 l-28 14 -14 -11 c-7 -6 -18
-27 -24 -47 -7 -20 -19 -56 -27 -79 l-16 -43 -23 0 -24 0 -6 24 -6 24 16 34
c8 18 22 56 31 83 18 55 57 95 94 95 13 0 39 -11 56 -24z m-2167 -259 l24 -24
0 -36 c0 -48 -17 -76 -57 -93 -50 -20 -63 -18 -101 20 l-34 34 0 32 c0 41 14
66 48 85 l27 15 34 -5 c19 -2 46 -15 59 -28z m3661 19 c56 -29 66 -99 22 -148
l-29 -33 -42 0 -43 0 -28 35 -29 34 0 28 c0 76 79 120 149 84z m-2188 -19 c9
-7 24 -30 33 -52 9 -22 24 -53 32 -69 l15 -29 -20 -20 -20 -20 -16 13 c-15 13
-31 44 -64 123 l-11 28 10 20 c12 22 19 23 41 6z m634 -7 l18 -20 -27 -51
c-27 -52 -34 -89 -16 -89 6 0 10 6 11 13 0 6 15 32 33 57 l33 45 24 0 24 0 3
-21 3 -21 -44 -64 -43 -64 -25 0 -24 0 -3 23 -4 24 -25 -7 -26 -6 -8 13 c-14
21 -10 46 12 96 26 56 49 92 59 92 4 0 15 -9 25 -20z m-947 -101 l93 -92 -17
-18 c-9 -11 -21 -19 -26 -19 -5 0 -43 32 -84 71 l-74 70 -17 -3 -17 -3 -9 -42
-8 -42 -20 -6 c-10 -4 -26 -20 -35 -36 l-15 -30 12 -34 13 -34 -18 -34 -19
-33 12 -22 c17 -32 50 -36 141 -18 l80 17 51 -7 52 -7 -4 10 c-2 6 -28 29 -57
52 l-52 42 10 19 c6 11 19 20 28 20 15 0 57 -23 72 -39 3 -4 24 -19 47 -34 43
-30 58 -51 46 -70 -3 -5 -7 -29 -7 -51 l-1 -41 -23 -3 c-13 -2 -34 4 -48 13
-14 9 -46 19 -72 22 l-48 5 -63 -16 c-34 -9 -82 -16 -106 -16 l-44 0 -36 34
-37 35 7 118 7 118 27 35 c15 19 35 56 45 83 l18 47 26 15 c15 8 38 14 52 14
l25 1 93 -91z m1407 56 c19 -20 35 -44 35 -55 0 -11 15 -36 33 -56 l32 -37 2
-74 c1 -40 7 -82 14 -94 l11 -21 -17 -44 -16 -43 -33 -21 c-40 -24 -75 -25
-168 -4 l-71 16 -44 -6 c-24 -3 -54 -13 -66 -21 -25 -17 -63 -20 -72 -5 -4 6
-8 35 -10 65 l-3 54 51 39 c104 77 147 90 147 43 l0 -20 -46 -36 c-26 -19 -51
-35 -55 -35 -5 0 -9 -5 -9 -11 l0 -12 48 6 c26 3 89 -1 141 -10 l93 -15 25 11
25 12 -7 42 c-3 23 -6 67 -5 98 l1 57 -31 25 c-16 14 -30 35 -30 47 0 30 -18
60 -35 60 -8 0 -45 -28 -81 -62 -88 -84 -124 -97 -124 -44 l0 22 85 82 86 82
29 0 29 0 36 -35z m-1168 -22 c10 -16 23 -34 30 -41 7 -7 13 -20 13 -28 0 -8
7 -14 16 -14 l15 0 -3 -26 c-2 -15 -11 -32 -20 -38 l-17 -10 -21 19 c-11 10
-34 43 -51 72 l-30 53 6 20 c9 29 42 25 62 -7z m-603 -110 c-4 -10 -12 -73
-17 -141 l-9 -122 22 -43 c28 -54 55 -83 102 -110 21 -11 38 -24 38 -28 0 -4
-19 -10 -42 -14 -23 -4 -49 -11 -58 -15 -8 -5 -49 -25 -90 -45 -110 -53 -167
-88 -280 -169 -176 -128 -385 -326 -513 -486 -37 -47 -83 -104 -102 -128 -89
-112 -211 -315 -308 -514 -43 -85 -77 -159 -77 -162 0 -4 -8 -26 -19 -49 -10
-23 -33 -82 -51 -132 -17 -49 -36 -98 -41 -107 -5 -10 -9 -25 -9 -33 0 -8 -8
-41 -19 -72 -60 -187 -118 -479 -143 -725 -17 -159 -17 -601 0 -744 7 -61 9
-125 6 -143 l-7 -32 -9 9 c-5 5 -13 47 -18 93 -5 46 -14 116 -19 154 -5 39
-15 129 -21 200 l-12 130 5 280 c2 154 10 330 16 390 18 181 70 476 111 625
38 141 77 272 90 305 5 11 18 47 29 80 23 70 48 134 86 220 8 17 23 53 35 80
29 69 81 173 106 215 11 19 32 55 46 80 56 101 68 119 131 213 146 214 315
411 483 562 49 44 96 86 104 94 8 8 56 45 105 81 83 61 117 84 223 147 20 12
44 27 52 33 22 16 64 38 74 39 4 1 5 -7 0 -16z m2014 -6 c20 -13 45 -27 56
-30 26 -10 178 -111 269 -179 132 -99 283 -236 371 -337 46 -53 94 -107 106
-121 61 -68 222 -294 286 -402 96 -162 219 -409 260 -523 9 -27 21 -54 25 -60
25 -35 140 -418 178 -590 10 -49 27 -133 36 -185 9 -52 20 -117 26 -145 13
-69 28 -247 39 -460 l9 -180 -9 -180 c-16 -307 -57 -603 -115 -835 -9 -36 -20
-84 -25 -107 -11 -52 -39 -143 -49 -163 -5 -9 -12 -31 -16 -50 -4 -19 -11 -39
-15 -45 -4 -5 -11 -25 -15 -44 -4 -19 -14 -41 -21 -49 -8 -7 -14 -27 -14 -43
0 -16 -4 -29 -10 -29 -12 0 -13 67 -1 74 5 3 12 23 16 43 4 21 10 43 15 48 4
6 10 29 14 53 3 24 10 51 15 60 5 9 14 42 20 72 6 30 18 89 27 130 72 345 105
823 74 1075 -5 44 -14 123 -20 175 -22 212 -51 366 -113 600 -18 67 -93 297
-107 325 -5 11 -19 45 -30 75 -11 30 -27 69 -35 85 -74 158 -121 252 -160 320
-25 44 -51 90 -57 103 -6 12 -15 22 -20 22 -4 0 -8 6 -8 13 0 11 -116 178
-167 242 -215 268 -413 454 -646 607 -56 37 -107 71 -112 75 -39 31 -233 113
-266 113 -31 0 -19 17 31 42 54 28 105 92 113 144 7 42 -7 238 -18 267 l-7 17
16 0 c9 0 33 -10 54 -23z m-2610 -75 c37 -41 38 -49 16 -96 l-17 -34 -37 -17
-37 -17 -29 15 c-16 8 -37 24 -48 35 l-18 21 0 36 0 37 24 25 c48 52 95 51
146 -5z m3286 6 l28 -31 -5 -41 -6 -41 -26 -22 -26 -23 -38 0 -38 0 -27 25
-26 24 0 44 0 44 20 26 c36 45 98 43 144 -5z m-1584 -320 c24 -13 48 -31 54
-40 l10 -17 -9 -28 -10 -28 -45 -23 -45 -23 -115 3 -115 3 -30 20 c-38 25 -45
34 -45 66 0 62 96 101 231 94 l76 -4 43 -23z m-538 -37 l37 -34 15 -50 c8 -28
13 -53 11 -56 -3 -2 -31 16 -62 40 -87 66 -137 89 -235 104 -38 6 -49 18 -25
29 6 3 59 4 117 3 l105 -2 37 -34z m1066 33 c33 -9 27 -22 -15 -29 -111 -17
-221 -66 -259 -114 -12 -15 -34 -8 -34 11 0 6 10 31 23 56 l22 45 40 18 40 19
80 0 c44 0 90 -3 103 -6z m-436 -389 c-2 -16 -6 -60 -8 -96 l-5 -65 16 -63
c36 -141 143 -250 290 -297 l60 -19 115 0 115 1 60 23 59 24 51 51 c28 28 63
77 79 109 15 31 33 57 40 57 17 0 47 -22 171 -126 186 -155 318 -305 473 -539
89 -133 237 -412 276 -520 10 -27 24 -63 31 -80 8 -16 23 -61 35 -100 12 -38
26 -79 31 -90 13 -31 65 -240 83 -335 35 -192 46 -275 57 -451 l11 -184 -7
-170 c-8 -217 -27 -399 -56 -535 -21 -101 -50 -225 -59 -255 -5 -16 -19 -61
-31 -100 -11 -38 -25 -79 -29 -90 -4 -11 -22 -60 -40 -110 -33 -92 -174 -389
-219 -460 -13 -22 -54 -85 -90 -140 -240 -365 -568 -658 -931 -831 -41 -19
-88 -42 -103 -50 -16 -8 -33 -14 -39 -14 -5 0 -24 -6 -41 -14 -52 -24 -186
-60 -302 -81 -304 -57 -579 -36 -900 67 -103 33 -93 28 -248 103 -205 99 -456
282 -612 446 -188 198 -355 440 -483 699 -102 206 -109 223 -161 377 -104 314
-151 547 -171 838 -5 88 -13 181 -16 207 -6 48 9 310 27 468 18 160 42 291 83
455 30 121 38 150 46 170 4 11 18 52 30 90 12 39 26 74 31 80 5 5 9 15 9 23 0
7 9 34 21 60 11 26 24 56 29 67 18 44 122 253 148 300 43 78 139 221 216 324
75 100 290 324 371 387 27 22 58 47 69 56 30 27 96 71 100 67 1 -2 17 -34 35
-71 l32 -66 45 -42 c25 -23 71 -53 102 -68 l57 -25 115 -1 115 -1 65 19 c79
24 152 69 202 124 85 95 128 255 97 365 -6 22 -8 45 -5 53 l6 14 227 -2 228
-3 -3 -30z m-2844 0 c36 -30 47 -66 32 -109 -28 -86 -152 -86 -180 0 l-12 34
12 35 12 35 26 15 c40 21 77 18 110 -10z m5348 9 c28 -19 54 -63 54 -91 0 -10
-14 -35 -31 -56 l-30 -37 -39 0 -38 0 -31 31 -31 31 0 37 0 37 31 32 31 32 30
0 c16 0 40 -7 54 -16z m-5089 -175 c7 -7 21 -27 29 -45 l16 -34 -12 -29 c-6
-16 -21 -38 -32 -48 l-20 -18 -43 0 -43 0 -26 24 -26 24 0 39 c0 22 5 48 11
59 22 43 108 59 146 28z m1481 9 c7 -7 12 -26 12 -43 l0 -32 -19 -17 -19 -17
-68 3 -69 3 0 18 0 17 65 40 c71 43 80 46 98 28z m1857 -31 c90 -53 86 -77
-15 -77 l-69 0 -15 16 c-19 18 -21 75 -4 92 15 15 35 9 103 -31z m1502 21 l33
-23 6 -32 c11 -60 -18 -109 -70 -118 -35 -7 -75 5 -99 30 l-17 16 0 42 c0 91
75 133 147 85z m-5242 -1054 l25 -27 0 -39 0 -40 -29 -29 -29 -29 -31 0 c-47
0 -78 19 -96 61 l-18 38 13 31 c17 42 47 60 98 60 l43 0 24 -26z m5670 0 l25
-27 0 -39 0 -40 -29 -29 -29 -29 -31 0 c-47 0 -78 19 -96 61 l-18 38 13 31
c17 42 47 60 98 60 l43 0 24 -26z m-5801 -515 c14 -17 29 -41 32 -54 l6 -24
-18 -30 c-9 -16 -28 -34 -41 -40 -27 -12 -83 -14 -99 -3 -24 16 -44 59 -44 92
l0 35 25 28 26 27 44 0 43 0 26 -31z m5921 8 l26 -22 6 -42 6 -42 -31 -31 -30
-30 -37 0 c-49 0 -74 15 -91 55 l-14 34 6 31 c4 17 18 39 32 50 l25 20 38 0
38 0 26 -23z m-5963 -507 c14 -10 31 -33 38 -50 l12 -30 -12 -30 c-7 -17 -22
-37 -34 -45 -21 -15 -82 -20 -111 -9 -21 9 -45 56 -45 92 l0 30 29 31 29 31
35 0 34 0 25 -20z m5985 -2 l33 -23 6 -30 c7 -37 -6 -73 -35 -99 l-22 -20 -36
1 c-20 1 -46 7 -60 14 l-23 13 -12 37 -11 38 13 31 c26 62 88 78 147 38z
m-5991 -486 c58 -43 41 -137 -29 -167 l-31 -13 -28 10 c-15 6 -37 21 -48 35
l-20 26 0 37 0 37 20 26 c32 40 89 44 136 9z m6011 -5 c25 -22 39 -74 28 -107
-4 -11 -25 -32 -47 -46 l-40 -26 -28 12 c-15 6 -38 22 -50 35 l-22 23 0 35 c0
47 17 76 55 92 38 16 74 10 104 -18z m-5950 -471 l28 -24 0 -47 0 -47 -28 -24
-28 -24 -35 0 c-49 0 -73 15 -90 57 l-15 35 6 29 c4 16 18 38 32 49 l26 20 38
0 38 0 28 -24z m5898 -2 c13 -14 27 -39 30 -55 l6 -28 -17 -30 c-20 -34 -52
-51 -95 -51 l-31 0 -29 29 -29 29 0 39 0 38 25 28 26 27 45 0 45 0 24 -26z
m-5575 -120 c0 -24 -4 -44 -10 -44 -5 0 -10 23 -10 51 l0 50 10 -6 c6 -3 10
-26 10 -51z m-205 -480 l25 -27 0 -39 0 -40 -29 -29 -29 -29 -31 0 c-47 0 -78
19 -96 61 l-18 38 13 31 c17 42 47 60 98 60 l43 0 24 -26z m5670 0 l25 -27 0
-39 0 -40 -29 -29 -29 -29 -31 0 c-47 0 -78 19 -96 61 l-18 38 13 31 c17 42
47 60 98 60 l43 0 24 -26z m-515 -219 c0 -14 -4 -25 -10 -25 -5 0 -10 11 -10
25 0 14 5 25 10 25 6 0 10 -11 10 -25z m-4933 -348 c13 -11 25 -35 29 -52 l6
-33 -16 -30 c-9 -17 -26 -37 -38 -43 -29 -15 -92 -5 -118 19 l-22 20 -5 39 -5
38 22 28 c13 16 32 32 44 37 30 11 77 1 103 -23z m5222 -3 l21 -27 0 -39 0
-40 -29 -29 -29 -29 -37 0 -37 0 -29 29 -29 29 0 34 c0 32 21 74 44 90 6 4 32
8 58 8 l47 0 20 -26z m-4896 -579 l27 -26 0 -44 0 -45 -20 -20 c-22 -22 -61
-40 -87 -40 -8 0 -30 15 -49 34 l-34 34 0 37 0 37 29 29 29 29 39 0 38 0 28
-25z m4558 5 l28 -21 7 -33 6 -34 -16 -31 c-19 -36 -69 -65 -100 -57 -13 3
-35 15 -49 26 l-26 21 -7 33 -6 34 16 30 c9 17 24 36 33 41 29 17 83 12 114
-9z m-531 -566 l25 -24 0 -46 0 -46 -29 -25 -30 -25 -42 5 -42 4 -23 22 -24
22 0 44 0 43 20 22 c40 45 100 46 145 4z m-3485 1 l25 -24 0 -41 0 -42 -29
-29 -29 -29 -37 0 -37 0 -30 30 -30 31 5 47 5 46 22 18 22 18 45 0 44 0 24
-25z m736 -454 l29 -29 0 -40 0 -39 -25 -27 -24 -26 -46 0 -45 0 -20 20 c-22
22 -40 61 -40 87 0 8 15 30 34 49 l34 34 37 0 37 0 29 -29z m2010 0 l29 -29 0
-40 0 -39 -25 -27 -24 -26 -46 0 -45 0 -20 20 c-22 22 -40 61 -40 87 0 8 15
30 34 49 l34 34 37 0 37 0 29 -29z m-1082 -222 l31 -31 0 -38 0 -39 -37 -30
c-42 -35 -72 -39 -109 -15 -28 19 -54 63 -54 91 0 10 14 35 31 56 l30 37 39 0
38 0 31 -31z M9669 7096 c-2 -2 -56 -9 -119 -16 -63 -6 -131 -16 -150 -20 -19
-5 -73 -19 -120 -30 -78 -20 -141 -39 -230 -73 -19 -7 -66 -28 -105 -48 -303
-152 -501 -345 -639 -626 -24 -48 -47 -99 -50 -113 -4 -14 -11 -34 -16 -45
-17 -40 -39 -122 -50 -185 -7 -36 -16 -85 -20 -110 -5 -25 -9 -84 -9 -132 l-1
-88 14 0 c8 0 18 5 21 10 4 6 23 20 43 31 49 27 88 50 225 134 l114 70 6 160
c3 88 10 176 17 195 41 117 55 151 82 205 83 161 250 310 422 376 28 11 60 24
71 29 53 24 255 66 340 72 l50 3 -1 -30 c-1 -16 -9 -70 -19 -120 -22 -114 -39
-206 -60 -320 -10 -49 -23 -121 -30 -160 -79 -417 -107 -574 -196 -1085 -33
-195 -67 -386 -75 -425 -7 -38 -20 -104 -28 -145 -16 -83 -37 -173 -60 -265
-8 -33 -20 -80 -26 -105 -41 -164 -107 -302 -183 -381 l-42 -44 -70 -34 -70
-35 -125 -3 c-69 -2 -130 -3 -135 -3 -6 0 -44 -39 -85 -86 -41 -48 -110 -126
-152 -174 -43 -48 -78 -93 -78 -99 0 -18 26 -20 640 -51 107 -5 238 -14 290
-20 52 -5 165 -12 250 -16 l155 -6 100 128 c55 70 117 147 138 171 20 24 37
50 37 57 l0 13 -167 12 c-186 12 -390 20 -530 21 -51 0 -93 4 -93 9 0 5 17 24
38 42 20 19 96 92 167 164 l131 130 72 101 c40 56 72 105 72 110 0 5 9 20 20
34 19 24 120 223 120 236 0 3 6 20 14 37 26 60 45 122 55 177 6 30 17 92 26
138 16 87 33 179 60 327 9 50 22 126 30 170 9 44 22 121 31 170 9 50 22 125
30 168 8 42 20 112 28 155 14 78 37 203 61 342 7 41 27 152 45 245 47 261 59
324 71 402 l11 71 22 6 c56 15 200 5 316 -23 72 -18 224 -99 284 -152 63 -57
134 -153 165 -224 12 -27 26 -57 30 -66 5 -8 15 -55 21 -105 l13 -89 -12 -125
c-28 -306 -129 -560 -290 -733 -81 -88 -265 -203 -351 -222 -19 -4 -39 -10
-45 -14 -14 -10 -176 -39 -257 -46 l-68 -7 -35 -71 c-19 -39 -35 -77 -35 -85
l0 -14 128 5 c206 9 362 43 551 122 62 26 118 54 126 61 7 8 17 14 21 14 27 0
244 167 323 249 103 106 231 293 286 416 146 329 153 668 18 883 -112 179
-299 289 -588 348 -68 14 -134 23 -316 44 -81 9 -661 15 -670 6z M8910 9483
c-60 -41 -64 -74 -17 -128 l33 -38 22 7 c28 9 28 23 1 52 l-21 23 22 31 23 32
-19 19 -20 19 -24 -17z M10691 9487 c-15 -15 -14 -38 4 -65 l16 -22 -23 -30
-23 -31 15 -9 c28 -18 49 -10 75 27 38 57 30 99 -24 127 l-28 15 -12 -12z
M6679 7560 c-54 -28 -121 -109 -148 -178 l-23 -60 4 -104 4 -103 16 -30 c21
-38 65 -85 103 -110 l30 -20 72 0 72 0 31 30 c44 42 60 76 60 130 0 78 -41
125 -109 125 -36 0 -61 -28 -61 -68 l0 -31 18 -10 18 -10 15 10 c19 12 56 11
64 -1 19 -31 -36 -80 -89 -80 l-25 0 -35 34 -36 33 0 49 c0 49 4 58 53 147 15
26 39 68 54 95 14 26 37 64 50 84 12 21 23 44 23 52 0 38 -100 48 -161 16z
M12815 7566 l-19 -13 13 -32 c8 -17 17 -31 22 -31 5 0 9 -5 9 -11 0 -6 28 -59
63 -118 35 -58 68 -119 75 -134 36 -83 -16 -177 -97 -177 l-31 0 -32 28 -31
29 6 18 7 17 28 -6 c15 -3 37 -8 49 -12 l21 -6 12 22 11 21 -6 30 c-8 37 -37
53 -80 45 l-34 -7 -26 -31 -27 -32 4 -68 4 -68 36 -37 37 -37 59 -4 60 -4 37
12 c21 7 57 31 80 54 l41 42 17 51 17 52 0 73 0 74 -22 64 -21 65 -51 53 c-28
30 -68 63 -88 73 -43 22 -116 25 -143 5z M6891 7484 c-12 -19 -21 -38 -21 -41
0 -2 -10 -19 -22 -36 -13 -18 -29 -42 -35 -55 l-12 -23 30 -17 c65 -35 94 -58
104 -80 15 -35 37 -22 68 41 l29 58 -18 57 -18 57 -34 37 c-19 21 -38 38 -42
38 -4 0 -17 -16 -29 -36z M12690 7503 c-30 -36 -49 -71 -63 -119 l-15 -50 30
-64 c17 -36 32 -67 34 -69 2 -3 20 14 39 36 l35 41 45 18 45 19 -1 15 c-1 24
-104 185 -120 188 -8 1 -21 -5 -29 -15z M4290 4919 c-36 -5 -87 -17 -115 -27
l-50 -18 1 -85 c3 -183 15 -525 20 -546 l4 -23 73 0 c75 0 254 -22 317 -39 58
-16 193 -59 227 -73 l33 -12 12 12 c7 7 19 36 26 65 7 29 19 77 27 107 7 30
21 80 30 110 9 30 23 80 30 110 8 30 21 82 30 115 10 33 19 74 22 91 l5 32
-34 25 c-96 72 -280 141 -418 157 -97 11 -148 11 -240 -1z M14945 4860 c-44
-10 -98 -24 -120 -33 -56 -20 -195 -92 -225 -116 l-24 -19 11 -59 c6 -32 18
-83 27 -113 8 -30 28 -105 43 -167 16 -62 32 -115 36 -119 4 -4 7 -15 7 -25 0
-10 6 -38 14 -61 8 -24 17 -55 20 -70 7 -29 24 -35 54 -19 16 9 98 37 172 59
90 26 203 44 318 50 l126 7 7 35 c4 19 10 164 13 322 l7 287 -23 15 c-13 8
-57 22 -98 30 l-75 16 -105 -1 c-58 -1 -141 -9 -185 -19z M3858 4760 c-15 -4
-64 -28 -109 -51 l-82 -44 -76 -75 -77 -75 -41 -85 c-48 -100 -67 -151 -87
-240 -22 -98 -49 -357 -42 -399 4 -20 11 -65 17 -101 15 -101 41 -203 56 -221
7 -8 13 -25 13 -37 0 -12 5 -22 10 -22 l11 0 -7 63 c-15 155 37 333 137 463
96 125 269 232 422 259 l37 7 0 17 c-1 9 -7 70 -15 136 -8 66 -22 180 -30 254
-8 74 -20 140 -26 148 -12 14 -68 16 -111 3z M15585 4718 c-3 -7 -9 -51 -15
-98 -20 -163 -41 -325 -48 -382 -5 -32 -4 -64 0 -72 5 -8 33 -20 63 -26 31 -6
68 -18 83 -26 15 -8 30 -14 34 -14 15 0 154 -90 196 -126 86 -73 159 -194 194
-318 l19 -70 0 -81 c0 -126 18 -165 38 -82 5 23 20 83 32 132 l23 90 -1 170 0
170 -17 90 c-9 50 -20 99 -25 110 -4 11 -18 52 -31 90 -49 150 -134 263 -267
353 -72 48 -116 69 -184 87 -67 18 -88 19 -94 3z M4060 4112 l-95 -17 -86 -41
-86 -42 -71 -67 c-75 -71 -127 -141 -156 -215 l-19 -45 -5 -138 -4 -138 12
-62 c17 -89 58 -203 93 -261 68 -111 112 -154 392 -375 77 -61 172 -135 210
-166 39 -31 144 -115 235 -187 91 -71 176 -139 189 -151 14 -11 54 -43 91 -71
36 -28 88 -69 115 -91 82 -66 253 -236 308 -305 28 -36 54 -67 57 -70 3 -3 17
-23 30 -45 13 -22 26 -42 29 -45 8 -6 36 -65 55 -112 56 -140 95 -448 66 -524
-13 -34 -7 -41 17 -17 22 22 68 106 128 233 38 81 75 213 90 324 l16 119 -17
111 c-9 61 -25 143 -36 181 -11 39 -24 86 -29 105 -6 19 -17 49 -25 67 -8 17
-14 37 -14 45 -1 19 -93 200 -136 267 -20 31 -64 85 -98 120 -99 102 -380 323
-529 415 -216 133 -409 315 -468 441 -24 51 -49 159 -49 210 0 58 33 203 59
256 12 25 44 71 71 101 l50 56 80 38 c44 21 80 42 80 46 0 4 -17 10 -37 13
-21 4 -49 11 -63 16 -34 12 -168 29 -270 34 l-85 4 -95 -17z M15225 4074 c-63
-6 -207 -36 -242 -51 -37 -15 -44 -33 -13 -33 30 0 117 -50 170 -97 47 -42 85
-105 116 -193 l16 -45 5 -112 6 -113 -23 -67 -22 -68 -68 -90 -68 -90 -90 -74
c-49 -40 -123 -95 -163 -122 -41 -26 -78 -52 -84 -56 -5 -5 -28 -19 -50 -33
-89 -54 -355 -262 -453 -355 -101 -95 -209 -275 -262 -435 -12 -36 -25 -74
-30 -85 -12 -28 -36 -116 -56 -210 l-18 -80 0 -120 0 -120 18 -80 c10 -44 22
-88 27 -97 5 -10 9 -23 9 -29 0 -18 83 -196 136 -291 23 -43 43 -61 44 -40 0
4 2 72 4 152 l4 145 16 65 c56 220 93 293 237 465 101 122 202 213 444 404 50
39 95 74 100 79 6 4 42 32 80 62 39 30 76 61 84 68 7 7 48 40 90 72 99 78 307
243 376 299 11 9 52 40 90 70 39 29 109 93 156 142 l86 88 36 73 c21 41 37 81
37 90 0 9 4 19 9 22 5 4 12 30 16 59 4 28 12 60 17 70 14 27 12 248 -2 294
-29 91 -55 151 -86 193 -75 104 -207 203 -314 235 -30 9 -68 20 -85 25 -34 10
-239 20 -300 14z M2190 3170 c-63 -10 -191 -43 -234 -59 l-28 -11 7 -18 c3 -9
12 -44 20 -77 25 -110 35 -150 45 -185 5 -19 46 -181 90 -359 44 -178 82 -326
85 -329 2 -3 76 -6 162 -7 l158 -1 37 -17 36 -16 9 12 c13 17 84 248 98 317 4
19 11 40 15 45 4 6 11 26 15 45 3 19 13 53 20 75 7 22 21 67 30 100 19 72 62
212 83 278 l16 48 -10 16 c-5 9 -46 34 -90 56 -93 47 -100 50 -179 73 l-60 17
-135 3 c-74 1 -160 -1 -190 -6z M17120 3130 c-14 -4 -41 -8 -61 -9 -71 -2
-271 -77 -333 -125 l-19 -15 7 -43 c4 -23 11 -47 15 -53 5 -5 13 -30 19 -55
11 -46 16 -64 72 -250 17 -58 37 -126 43 -152 7 -25 15 -50 20 -54 4 -4 7 -15
7 -24 0 -15 10 -52 57 -210 10 -30 24 -63 32 -72 l16 -17 55 16 c61 17 223 23
286 9 l41 -8 8 18 c4 11 14 45 21 77 8 31 20 83 28 115 8 31 19 77 25 102 6
25 15 61 21 80 5 19 32 130 60 245 28 116 54 224 59 240 6 17 13 46 16 67 l7
36 -24 13 c-34 19 -119 39 -248 59 -123 20 -190 23 -230 10z M1480 3004 c-68
-15 -69 -15 -165 -59 l-60 -28 -80 -81 -81 -81 -33 -69 -32 -69 -16 -86 -15
-86 12 -80 c19 -123 52 -212 118 -315 45 -71 204 -234 307 -315 120 -94 358
-235 397 -235 l19 0 -8 63 c-4 34 -7 105 -6 158 l1 95 19 55 c11 30 27 68 36
85 20 38 93 102 124 110 l23 6 7 26 6 25 -36 111 c-20 61 -51 156 -68 211 -17
55 -34 107 -39 115 -4 9 -11 31 -15 50 -4 19 -11 41 -16 50 -4 8 -18 49 -30
90 -26 94 -45 153 -66 207 l-15 42 -50 10 c-65 14 -158 12 -238 -5z M2985
3008 c-2 -7 -20 -65 -40 -128 -20 -63 -40 -122 -45 -130 -4 -9 -11 -31 -14
-50 -4 -19 -11 -44 -16 -55 -4 -11 -29 -87 -56 -170 -26 -82 -64 -204 -86
-269 -21 -66 -37 -125 -35 -130 3 -6 35 -27 72 -46 l68 -35 50 -55 c27 -30 59
-75 70 -100 l21 -45 0 -105 -1 -105 -21 -110 c-12 -60 -25 -124 -31 -141 l-9
-31 10 -14 10 -14 4 10 c2 6 47 71 99 145 52 74 99 142 105 150 6 8 45 65 88
125 203 287 204 289 233 408 l19 78 0 109 0 109 -15 68 c-20 85 -41 143 -77
211 -52 97 -75 128 -149 192 -41 36 -76 67 -79 70 -3 3 -27 20 -54 38 l-49 32
-34 0 c-19 0 -35 -6 -38 -12z M16510 2971 c-48 -15 -114 -63 -205 -152 l-91
-88 -38 -78 c-21 -43 -43 -86 -47 -95 -5 -10 -14 -37 -19 -60 -6 -24 -16 -61
-21 -83 l-11 -40 4 -158 5 -158 11 -11 c7 -7 12 -20 12 -31 0 -31 47 -117 115
-212 35 -49 84 -119 109 -155 25 -36 72 -103 105 -150 33 -47 85 -122 117
-167 31 -46 60 -83 65 -83 5 0 9 -7 9 -15 0 -8 5 -15 10 -15 12 0 13 32 1 46
-10 11 -35 145 -56 295 l-14 105 15 60 c20 80 37 109 106 180 l60 62 54 22 54
23 0 29 c0 15 -4 36 -9 46 -6 9 -20 51 -31 92 -12 41 -39 127 -60 190 -21 63
-47 149 -59 190 -12 41 -26 82 -30 90 -5 9 -12 31 -16 50 -4 19 -11 41 -16 50
-4 8 -17 49 -29 90 -39 138 -46 147 -100 131z M17835 2963 c-16 -3 -35 -9 -41
-14 -6 -5 -30 -69 -53 -142 -23 -72 -46 -139 -50 -147 -5 -9 -12 -31 -15 -50
-4 -19 -11 -44 -16 -55 -4 -11 -32 -94 -61 -185 -28 -91 -63 -197 -76 -237
-12 -39 -23 -76 -23 -81 0 -6 21 -21 46 -33 91 -46 143 -128 170 -268 l16 -86
-12 -90 c-6 -49 -13 -95 -15 -101 -2 -6 0 -16 4 -22 l7 -12 74 38 c233 119
412 255 562 427 l78 89 39 81 c22 44 48 105 58 135 l18 55 0 125 0 125 -18 50
c-10 28 -27 70 -39 95 l-20 45 -82 80 -81 80 -65 33 c-119 60 -270 84 -405 65z
M1040 1898 c-53 -24 -86 -37 -110 -44 -31 -9 -132 -54 -230 -103 -201 -101
-351 -195 -493 -311 -32 -26 -101 -123 -125 -175 -13 -27 -27 -57 -32 -66 -4
-9 -12 -37 -15 -63 -4 -26 -14 -50 -21 -53 l-14 -5 0 -178 0 -178 13 -5 14 -5
6 -62 c4 -34 10 -67 14 -73 5 -7 13 -32 18 -57 6 -25 14 -45 20 -45 5 0 31 32
57 71 167 246 358 388 581 431 l27 5 0 -19 c0 -10 -4 -23 -9 -28 -5 -6 -16
-37 -26 -69 l-17 -60 0 -112 0 -113 17 -58 c9 -32 37 -101 63 -153 l47 -95 70
-70 70 -70 55 -27 c83 -39 108 -48 140 -48 35 0 36 2 11 49 -11 20 -28 54 -38
76 l-18 40 0 125 0 125 34 67 c44 89 124 183 213 253 78 61 188 120 244 131
19 3 37 10 40 15 3 5 13 9 23 9 31 0 216 99 248 133 36 37 73 104 73 130 0 10
4 27 10 37 l10 19 -29 20 c-16 12 -33 21 -38 21 -4 1 -26 9 -48 20 -22 11 -43
19 -47 20 -4 0 -37 18 -73 40 -36 22 -68 40 -71 40 -7 0 -247 160 -254 169 -3
4 -23 20 -45 36 -22 16 -69 54 -105 85 -36 30 -78 66 -95 80 -16 14 -49 44
-73 68 -46 45 -53 47 -92 30z M4914 1859 c3 -13 14 -62 23 -109 l16 -85 -17
-81 c-23 -111 -52 -164 -137 -255 -79 -83 -248 -185 -335 -204 -18 -3 -39 -14
-48 -24 l-16 -17 -10 -250 c-5 -137 -14 -303 -20 -369 -5 -66 -11 -163 -12
-215 l-3 -95 45 -3 c64 -5 249 39 285 68 6 4 21 11 34 15 22 7 160 87 186 107
6 5 33 25 60 45 109 81 254 220 262 252 3 14 16 44 27 66 39 73 55 129 71 241
l15 112 -15 123 c-9 68 -20 135 -25 149 -4 14 -11 38 -15 54 -12 53 -65 157
-119 229 -62 83 -209 243 -239 258 l-20 11 7 -23z M18425 1819 c-58 -60 -215
-188 -396 -324 -55 -41 -262 -166 -310 -188 -84 -38 -133 -57 -145 -57 l-14 0
0 -40 0 -39 26 -56 c15 -31 44 -71 66 -89 49 -42 200 -117 293 -146 56 -17
162 -68 215 -104 118 -79 233 -226 275 -349 l16 -49 -4 -86 c-5 -101 -17 -152
-52 -218 -14 -26 -22 -51 -18 -55 5 -5 34 -2 65 5 163 38 311 196 388 415 l20
54 6 101 6 101 -11 72 c-6 40 -20 89 -32 109 l-20 37 13 8 c15 10 88 1 102
-12 6 -5 17 -9 26 -9 28 0 153 -69 228 -127 40 -31 94 -81 120 -112 26 -31 56
-66 67 -78 11 -12 38 -52 60 -87 22 -36 43 -65 47 -66 26 -1 64 150 80 317
l12 133 -12 97 c-18 150 -46 228 -124 334 l-48 67 -90 67 c-96 72 -206 145
-218 145 -4 0 -18 9 -32 20 -29 22 -260 138 -340 170 -30 12 -68 28 -85 35
-38 16 -123 45 -133 45 -5 0 -26 -18 -47 -41z M14533 1731 c-185 -195 -253
-314 -288 -504 l-16 -89 0 -131 -1 -132 16 -60 c20 -76 45 -142 68 -180 10
-16 18 -38 18 -49 0 -20 26 -46 170 -170 120 -103 191 -151 310 -213 122 -62
179 -81 286 -95 l87 -11 12 16 12 17 -7 47 c-4 27 -11 142 -15 258 -3 116 -11
248 -15 295 -5 47 -10 132 -11 190 -1 58 -5 115 -10 126 l-8 22 -37 6 c-20 4
-44 11 -53 15 -9 5 -34 16 -56 27 -56 25 -141 81 -198 128 -57 47 -143 162
-153 203 -4 15 -10 33 -15 38 -4 6 -11 40 -14 75 -5 57 0 114 22 238 3 17 1
32 -3 31 -5 -1 -50 -44 -101 -98z M3389 1742 c-15 -24 -62 -92 -145 -209 -16
-22 -36 -51 -44 -63 -8 -13 -33 -48 -55 -79 -22 -31 -58 -83 -80 -116 -22 -33
-58 -85 -80 -116 -22 -31 -47 -66 -55 -79 -8 -12 -27 -40 -42 -61 l-28 -39 0
-38 c0 -83 76 -249 170 -371 66 -86 118 -138 205 -203 161 -121 254 -156 520
-198 l120 -19 157 -1 c86 0 159 4 162 9 3 5 10 58 16 117 11 108 23 235 56
559 9 94 18 186 18 205 l1 34 -90 24 c-49 13 -108 28 -130 33 -22 5 -49 14
-60 19 -11 5 -45 19 -75 31 -142 58 -247 127 -337 222 l-68 72 -37 75 c-20 41
-43 106 -51 144 -7 39 -18 71 -23 73 -5 2 -16 -9 -25 -25z M16125 1707 c-2 -6
-6 -35 -9 -64 -6 -64 -60 -181 -115 -250 -23 -29 -75 -79 -116 -112 l-74 -59
-113 -56 c-63 -31 -129 -59 -148 -62 -19 -4 -39 -10 -45 -15 -13 -9 -176 -49
-203 -49 -29 0 -33 -22 -22 -130 5 -52 14 -149 20 -215 6 -66 14 -151 20 -190
5 -38 12 -117 16 -175 3 -58 12 -130 18 -160 l13 -55 224 1 224 0 75 17 c77
17 169 43 205 58 129 52 198 97 317 208 43 41 101 104 127 140 78 107 108 168
159 336 l9 30 -19 35 c-10 19 -52 82 -93 140 -41 58 -104 148 -139 200 -36 52
-97 140 -135 195 -39 55 -90 130 -115 166 -44 66 -73 90 -81 66z"/>
</g>
</svg>
