<?xml version="1.0" standalone="no"?>
<!DOCTYPE svg PUBLIC "-//W3C//DTD SVG 20010904//EN"
 "http://www.w3.org/TR/2001/REC-SVG-20010904/DTD/svg10.dtd">
<svg version="1.0" xmlns="http://www.w3.org/2000/svg"
 width="1248.000000pt" height="408.000000pt" viewBox="0 0 1248.000000 408.000000"
 preserveAspectRatio="xMidYMid meet">
<metadata>
Created by potrace 1.16, written by Peter Selinger 2001-2019
</metadata>
<g transform="translate(0.000000,408.000000) scale(0.100000,-0.100000)"
fill="#000000" stroke="none">
<path d="M1178 4069 c-2 -6 -37 -16 -78 -24 -470 -82 -914 -531 -1036 -1045
-7 -30 -17 -73 -23 -95 -6 -22 -11 -54 -11 -72 0 -17 -7 -38 -15 -47 -22 -22
-22 -391 0 -400 9 -3 15 -18 15 -34 0 -44 44 -177 92 -277 94 -198 296 -398
478 -473 30 -13 64 -27 75 -32 127 -55 346 -47 474 17 111 56 231 212 231 302
0 114 -115 205 -203 160 -28 -14 -97 -80 -97 -92 0 -5 -16 -32 -36 -59 -101
-137 -311 -165 -449 -60 -202 153 -263 580 -138 962 136 412 462 751 809 840
99 25 526 25 679 0 39 -6 126 -20 195 -31 69 -11 141 -24 160 -29 19 -5 69
-16 110 -25 96 -21 137 -32 390 -109 63 -19 135 -40 159 -47 60 -18 60 -29 -1
-101 -46 -54 -79 -103 -133 -198 -6 -10 -16 -24 -22 -31 -24 -30 -218 -408
-264 -514 -22 -53 -42 -105 -61 -160 -11 -33 -24 -64 -28 -70 -4 -5 -11 -26
-15 -45 -4 -19 -11 -41 -16 -50 -9 -18 -65 -242 -80 -320 -5 -30 -17 -88 -25
-127 -8 -40 -21 -106 -29 -145 -26 -134 -60 -282 -90 -393 -9 -33 -20 -78 -26
-100 -12 -49 -56 -179 -74 -220 -8 -16 -23 -52 -35 -80 -108 -246 -320 -383
-504 -325 -17 5 -65 19 -106 31 -41 13 -79 26 -85 30 -82 56 -225 -10 -225
-105 0 -184 434 -280 745 -164 251 93 430 262 562 528 86 174 119 269 158 450
9 41 20 89 25 105 4 17 11 46 15 65 15 73 98 309 141 396 l44 91 73 8 c85 8
1124 24 1150 17 16 -4 18 -11 12 -56 -15 -113 -64 -348 -100 -481 -9 -33 -21
-80 -27 -105 -6 -25 -14 -49 -18 -55 -4 -5 -11 -26 -15 -45 -3 -19 -13 -53
-20 -75 -8 -22 -28 -87 -46 -144 -17 -57 -38 -115 -45 -130 -8 -14 -14 -32
-14 -38 0 -69 -138 -219 -302 -329 -125 -84 -143 -108 -143 -195 0 -157 102
-175 430 -74 155 48 215 57 290 44 28 -4 91 -15 140 -24 86 -15 213 -33 410
-56 126 -15 361 -7 400 15 17 9 36 16 44 16 21 0 146 87 178 124 15 18 38 45
50 59 l23 27 37 -20 c88 -45 182 -79 318 -116 100 -27 383 -27 470 -1 363 112
574 308 725 672 40 96 79 323 80 460 1 159 -10 139 145 250 109 78 210 161
278 230 l75 75 110 0 c137 0 145 -14 97 -155 -7 -22 -20 -65 -28 -95 -14 -53
-39 -142 -58 -205 -4 -16 -16 -57 -25 -90 -20 -74 -47 -162 -83 -280 -16 -49
-37 -117 -46 -149 -10 -33 -24 -71 -31 -85 -8 -14 -14 -31 -14 -37 0 -5 -11
-32 -24 -60 -126 -263 -76 -399 159 -433 589 -86 1099 -51 1398 95 49 24 92
31 101 16 2 -4 49 -25 103 -46 54 -21 106 -42 115 -47 10 -5 34 -13 55 -18 21
-6 63 -18 93 -27 307 -93 813 -107 1180 -33 187 38 215 44 225 51 6 3 28 9 50
13 22 4 45 11 50 15 23 18 85 22 108 8 44 -29 219 -84 362 -115 302 -64 707
-37 930 62 187 83 205 266 26 268 -47 1 -72 -6 -156 -47 -179 -86 -221 -97
-365 -103 -132 -5 -229 9 -368 54 -95 31 -127 94 -93 182 5 14 17 53 26 86 23
84 72 244 105 345 15 47 38 119 50 160 12 41 47 149 76 240 30 91 83 257 120
370 36 113 69 212 74 220 4 9 11 31 15 50 4 19 11 41 16 50 4 8 17 49 29 90
12 41 25 82 29 90 5 9 12 31 16 50 4 19 11 40 15 45 4 6 11 26 15 45 4 19 11
41 15 50 5 8 31 87 59 175 29 88 56 167 61 176 5 9 12 33 15 53 4 20 11 39 16
42 5 3 9 12 9 21 0 8 6 29 14 46 96 214 81 376 -40 428 -95 40 -156 18 -257
-92 -63 -67 -166 -250 -192 -339 -4 -14 -11 -29 -15 -35 -5 -5 -11 -27 -15
-48 -4 -20 -11 -40 -16 -43 -5 -3 -9 -14 -9 -25 0 -10 -8 -45 -19 -76 -10 -32
-26 -85 -35 -118 -9 -33 -23 -80 -30 -105 -8 -25 -21 -72 -30 -105 -9 -33 -23
-80 -30 -105 -8 -25 -21 -72 -30 -105 -9 -33 -23 -80 -30 -105 -8 -25 -21 -72
-30 -105 -9 -33 -23 -80 -30 -105 -8 -25 -21 -72 -30 -105 -9 -33 -23 -80 -30
-105 -8 -25 -21 -72 -30 -105 -18 -64 -29 -101 -69 -235 -14 -47 -36 -119 -47
-160 -12 -41 -32 -106 -45 -145 -13 -38 -26 -86 -30 -105 -4 -19 -11 -41 -15
-50 -5 -8 -18 -46 -30 -85 -12 -38 -25 -79 -30 -90 -46 -108 -61 -135 -86
-152 -40 -28 -109 -60 -147 -68 -18 -4 -36 -11 -42 -15 -5 -4 -64 -17 -130
-29 -66 -12 -145 -27 -175 -33 -78 -15 -562 -22 -630 -10 -225 42 -352 122
-425 267 -46 92 -43 98 60 120 137 28 362 87 400 105 11 5 43 17 70 26 64 21
100 35 263 110 45 20 82 41 82 46 0 4 5 8 11 8 28 0 162 101 244 184 118 120
159 200 182 363 5 42 -21 178 -38 198 -5 5 -9 16 -9 25 0 29 -109 167 -162
206 -61 44 -93 61 -163 89 -63 25 -359 29 -435 7 -184 -56 -269 -93 -390 -172
-97 -64 -305 -278 -376 -385 -117 -179 -169 -307 -216 -530 -14 -67 -14 -349
0 -405 12 -44 11 -46 -21 -73 -121 -106 -382 -161 -772 -162 -274 0 -310 4
-317 33 -5 19 25 155 41 182 5 9 12 31 16 50 4 19 11 41 16 50 13 24 118 355
153 485 9 33 23 80 30 105 8 25 18 63 24 85 6 22 17 63 25 90 8 28 25 88 37
135 13 47 29 103 35 125 l13 40 78 6 c44 4 189 12 324 18 373 18 437 39 433
138 -1 37 -8 52 -32 77 l-31 31 -327 3 c-217 2 -330 6 -334 13 -7 12 8 87 20
104 5 5 12 21 16 35 4 14 20 53 36 87 16 34 29 64 29 67 0 2 13 33 29 68 81
180 84 252 9 323 -25 24 -58 47 -74 50 -16 4 -42 11 -57 17 -22 9 -47 7 -109
-8 -136 -30 -159 -69 -207 -339 -21 -116 -43 -209 -61 -250 -5 -11 -12 -31
-16 -45 -23 -82 -75 -126 -138 -116 -23 4 -90 13 -151 21 -60 8 -148 20 -193
26 -102 13 -122 9 -167 -36 -33 -34 -35 -39 -35 -108 -1 -99 -23 -134 -150
-231 -85 -66 -84 -66 -133 6 -255 372 -744 491 -1157 283 -313 -157 -576 -511
-639 -858 -6 -32 -13 -62 -16 -67 -3 -5 -6 -85 -6 -177 0 -177 12 -259 61
-405 l22 -67 -29 -42 c-76 -114 -198 -182 -328 -182 -97 0 -123 6 -345 80
-288 96 -270 82 -232 183 13 36 31 88 38 115 25 85 44 158 59 215 7 30 28 107
45 170 18 63 38 141 46 173 30 123 43 176 74 292 17 66 38 145 45 175 8 30 21
78 28 105 30 103 201 602 226 660 4 11 18 47 31 80 12 33 26 69 30 80 5 11 19
45 31 75 12 30 27 69 34 85 8 17 23 51 34 77 153 358 402 615 636 658 118 22
118 48 0 88 -192 64 -404 21 -595 -121 -63 -47 -211 -196 -246 -247 -14 -19
-43 -62 -67 -95 -82 -115 -182 -298 -247 -450 -12 -27 -25 -59 -30 -70 -4 -11
-18 -47 -31 -80 -12 -33 -28 -74 -35 -92 -8 -17 -14 -38 -14 -46 0 -9 -4 -18
-9 -21 -5 -4 -12 -24 -16 -46 -4 -22 -11 -42 -16 -46 -5 -3 -9 -15 -10 -27 -1
-37 -35 -131 -50 -138 -31 -17 -1217 -57 -1241 -42 -12 6 -10 35 6 89 8 27 22
76 32 109 131 478 241 710 398 845 235 202 235 240 1 300 -138 35 -159 43
-320 124 -82 42 -153 76 -157 76 -4 0 -31 11 -60 24 -84 37 -109 47 -173 68
-33 11 -73 26 -90 33 -16 7 -48 18 -70 24 -22 5 -65 18 -95 27 -189 56 -441
106 -622 123 -57 6 -104 15 -106 20 -5 15 -479 15 -484 0z m8842 -1995 c153
-34 179 -142 103 -414 -35 -122 -157 -228 -347 -301 -28 -11 -60 -24 -71 -29
-11 -4 -45 -15 -75 -24 -30 -8 -89 -24 -130 -36 -41 -11 -88 -25 -105 -29 -64
-19 -115 -23 -116 -9 -2 29 2 74 11 98 4 14 19 59 31 100 85 276 331 572 533
642 63 22 80 22 166 2z m-4013 -91 c29 -31 53 -60 53 -64 0 -37 183 -188 276
-228 27 -12 57 -26 66 -31 9 -5 35 -13 57 -16 61 -10 66 -21 53 -117 -13 -90
-32 -194 -57 -302 -8 -38 -21 -96 -28 -127 -7 -31 -16 -60 -20 -64 -4 -4 -7
-16 -7 -26 0 -31 -70 -228 -95 -267 -85 -135 -244 -205 -465 -205 -229 0 -345
67 -385 224 -16 61 -24 297 -11 318 2 4 9 55 15 112 11 104 14 118 47 235 20
69 76 211 103 259 41 71 47 82 82 131 68 94 211 225 247 225 9 0 40 -25 69
-57z"/>
</g>
</svg>
