<?xml version="1.0" standalone="no"?>
<!DOCTYPE svg PUBLIC "-//W3C//DTD SVG 20010904//EN"
 "http://www.w3.org/TR/2001/REC-SVG-20010904/DTD/svg10.dtd">
<svg version="1.0" xmlns="http://www.w3.org/2000/svg"
 width="1248.000000pt" height="408.000000pt" viewBox="0 0 1248.000000 408.000000"
 preserveAspectRatio="xMidYMid meet">
<metadata>
Created by potrace 1.16, written by Peter Selinger 2001-2019
</metadata>
<g transform="translate(0.000000,408.000000) scale(0.100000,-0.100000)"
fill="#000000" stroke="none">
<path d="M1178 4069 c-2 -6 -37 -16 -78 -24 -187 -33 -371 -121 -548 -264
l-93 -75 -80 -98 c-150 -185 -269 -414 -315 -608 -7 -30 -17 -73 -23 -95 -6
-22 -11 -54 -11 -72 0 -17 -7 -38 -15 -47 l-15 -15 0 -189 0 -190 15 -6 15 -5
0 -29 c0 -44 44 -177 92 -277 94 -198 296 -398 478 -473 30 -13 64 -27 75 -32
36 -16 167 -40 215 -40 76 0 200 27 259 57 73 37 158 123 199 201 l32 63 0 38
c0 50 -32 114 -73 145 l-34 26 -37 0 c-21 0 -47 -5 -59 -11 -28 -14 -97 -80
-97 -92 0 -20 -75 -110 -111 -133 -21 -13 -71 -31 -111 -40 l-72 -17 -71 17
-71 17 -49 37 c-90 68 -143 168 -186 352 l-13 55 0 165 0 165 18 75 c69 283
198 520 387 710 147 147 295 236 465 280 l89 22 260 -5 c143 -3 292 -10 330
-17 39 -6 126 -20 195 -31 69 -11 141 -24 160 -29 19 -5 69 -16 110 -25 96
-21 137 -32 390 -109 63 -19 135 -40 159 -47 24 -7 45 -18 48 -25 2 -7 -20
-41 -49 -76 -46 -54 -79 -103 -133 -198 -6 -10 -16 -24 -22 -31 -24 -30 -218
-408 -264 -514 -22 -53 -42 -105 -61 -160 -11 -33 -24 -64 -28 -70 -4 -5 -11
-26 -15 -45 -4 -19 -11 -41 -16 -50 -9 -18 -65 -242 -80 -320 -5 -30 -17 -88
-25 -127 -8 -40 -21 -106 -29 -145 -26 -134 -60 -282 -90 -393 -9 -33 -20 -78
-26 -100 -12 -49 -56 -179 -74 -220 -8 -16 -23 -52 -35 -80 -36 -80 -106 -179
-170 -238 l-59 -55 -56 -21 -56 -21 -66 0 c-37 0 -80 4 -97 10 -17 5 -65 19
-106 31 -41 13 -79 26 -85 30 -20 14 -76 21 -115 14 l-41 -7 -34 -33 -35 -32
0 -47 0 -46 41 -45 c46 -50 95 -76 189 -101 l65 -17 145 -1 145 0 65 17 c233
63 395 171 534 357 130 175 227 398 281 650 9 41 20 89 25 105 4 17 11 46 15
65 15 73 98 309 141 396 l44 91 73 8 c85 8 1124 24 1150 17 l19 -5 -7 -51
c-15 -113 -64 -348 -100 -481 -9 -33 -21 -80 -27 -105 -6 -25 -14 -49 -18 -55
-4 -5 -11 -26 -15 -45 -3 -19 -13 -53 -20 -75 -8 -22 -28 -87 -46 -144 -17
-57 -38 -115 -45 -130 -8 -14 -14 -32 -14 -38 0 -7 -14 -39 -30 -70 l-31 -58
-72 -68 c-40 -37 -116 -97 -169 -133 -54 -36 -108 -80 -120 -97 l-23 -32 0
-66 0 -67 20 -22 c62 -68 149 -65 410 15 155 48 215 57 290 44 28 -4 91 -15
140 -24 86 -15 213 -33 410 -56 50 -6 153 -9 230 -6 l140 4 30 17 c17 9 36 16
44 16 21 0 146 87 178 124 15 18 38 45 50 59 l23 27 37 -20 c88 -45 182 -79
318 -116 l70 -19 170 0 170 0 60 18 c250 77 404 178 548 358 l66 82 49 101
c79 162 88 189 122 376 l20 105 0 110 c1 61 3 120 6 131 5 20 26 38 139 119
109 78 210 161 278 230 l75 75 110 0 111 0 6 -21 c8 -24 0 -76 -20 -134 -7
-22 -20 -65 -28 -95 -14 -53 -39 -142 -58 -205 -4 -16 -16 -57 -25 -90 -20
-74 -47 -162 -83 -280 -16 -49 -37 -117 -46 -149 -10 -33 -24 -71 -31 -85 -8
-14 -14 -31 -14 -37 0 -5 -11 -32 -24 -60 -13 -27 -33 -82 -46 -122 l-22 -74
4 -58 4 -58 28 -37 c49 -64 106 -79 431 -112 287 -29 666 -19 854 23 133 29
213 55 304 100 49 24 92 31 101 16 2 -4 49 -25 103 -46 54 -21 106 -42 115
-47 10 -5 34 -13 55 -18 21 -6 63 -18 93 -27 74 -22 172 -42 305 -61 l110 -17
220 0 c233 -1 374 11 545 45 187 38 215 44 225 51 6 3 28 9 50 13 22 4 45 11
50 15 6 5 27 11 48 15 l37 7 23 -14 c24 -16 175 -70 247 -88 196 -50 315 -63
550 -57 l195 5 70 16 c227 52 322 102 365 191 l22 45 -7 30 -7 30 -30 21 -30
22 -57 0 -56 1 -100 -48 c-121 -58 -126 -60 -195 -81 l-55 -18 -115 -4 c-63
-3 -140 0 -170 5 -156 29 -243 59 -277 94 l-27 29 1 41 c1 23 6 53 12 67 5 14
17 53 26 86 23 84 72 244 105 345 15 47 38 119 50 160 12 41 47 149 76 240 30
91 83 257 120 370 36 113 69 212 74 220 4 9 11 31 15 50 4 19 11 41 16 50 4 8
17 49 29 90 12 41 25 82 29 90 5 9 12 31 16 50 4 19 11 40 15 45 4 6 11 26 15
45 4 19 11 41 15 50 5 8 31 87 59 175 29 88 56 167 61 176 5 9 12 33 15 53 4
20 11 39 16 42 5 3 9 12 9 21 0 8 6 29 14 46 8 18 25 61 37 97 l23 65 0 81 1
80 -28 43 -28 42 -45 20 c-95 40 -156 18 -257 -92 l-67 -71 -59 -122 c-32 -66
-62 -132 -66 -146 -4 -14 -11 -29 -15 -35 -5 -5 -11 -27 -15 -48 -4 -20 -11
-40 -16 -43 -5 -3 -9 -14 -9 -25 0 -10 -8 -45 -19 -76 -10 -32 -26 -85 -35
-118 -9 -33 -23 -80 -30 -105 -8 -25 -21 -72 -30 -105 -9 -33 -23 -80 -30
-105 -8 -25 -21 -72 -30 -105 -9 -33 -23 -80 -30 -105 -8 -25 -21 -72 -30
-105 -9 -33 -23 -80 -30 -105 -8 -25 -21 -72 -30 -105 -9 -33 -23 -80 -30
-105 -8 -25 -21 -72 -30 -105 -18 -64 -29 -101 -69 -235 -14 -47 -36 -119 -47
-160 -12 -41 -32 -106 -45 -145 -13 -38 -26 -86 -30 -105 -4 -19 -11 -41 -15
-50 -5 -8 -18 -46 -30 -85 -12 -38 -25 -79 -30 -90 -5 -11 -19 -45 -33 -76
l-24 -56 -29 -20 c-40 -28 -109 -60 -147 -68 -18 -4 -36 -11 -42 -15 -5 -4
-64 -17 -130 -29 -66 -12 -145 -27 -175 -33 -30 -5 -172 -12 -315 -15 l-260
-5 -55 10 c-149 28 -259 75 -336 145 l-50 46 -39 76 -38 76 15 15 c7 8 45 21
83 29 137 28 362 87 400 105 11 5 43 17 70 26 64 21 100 35 263 110 45 20 82
41 82 46 0 4 5 8 11 8 28 0 162 101 244 184 l90 91 33 68 c32 66 46 117 59
204 l5 42 -17 73 c-10 40 -21 77 -26 83 -5 5 -9 16 -9 25 0 9 -25 50 -55 92
l-55 76 -52 38 c-61 44 -93 61 -163 89 l-50 20 -170 0 -170 0 -45 -13 c-184
-56 -269 -93 -390 -172 -36 -24 -122 -100 -191 -169 l-126 -126 -59 -90 c-117
-179 -169 -307 -216 -530 -14 -67 -14 -349 0 -405 l12 -45 -33 -28 c-69 -61
-195 -105 -412 -144 l-100 -17 -260 -1 c-143 0 -272 3 -286 7 -15 4 -29 16
-31 26 -5 19 25 155 41 182 5 9 12 31 16 50 4 19 11 41 16 50 13 24 118 355
153 485 9 33 23 80 30 105 8 25 18 63 24 85 6 22 17 63 25 90 8 28 25 88 37
135 13 47 29 103 35 125 l13 40 78 6 c44 4 189 12 324 18 135 7 277 19 316 27
l72 16 23 25 24 25 -2 45 -2 46 -30 31 -31 31 -327 3 -327 3 -7 10 c-7 12 8
87 20 104 5 5 12 21 16 35 4 14 20 53 36 87 16 34 29 64 29 67 0 2 13 33 29
68 16 35 36 84 46 110 l17 47 -4 62 -4 61 -46 43 c-25 24 -58 47 -74 50 -16 4
-42 11 -57 17 l-28 11 -81 -19 -81 -18 -33 -33 -33 -33 -19 -67 c-11 -38 -29
-122 -41 -188 -21 -116 -43 -209 -61 -250 -5 -11 -12 -31 -16 -45 -11 -38 -51
-98 -75 -111 l-22 -11 -41 6 c-23 4 -90 13 -151 21 -60 8 -148 20 -193 26
-102 13 -122 9 -167 -36 l-35 -36 0 -72 c-1 -75 -7 -93 -51 -144 -36 -43 -170
-144 -183 -140 -6 2 -28 28 -49 59 -44 65 -183 201 -247 243 -119 78 -239 120
-382 135 l-96 11 -108 -11 c-138 -13 -194 -29 -324 -95 -155 -78 -257 -162
-374 -309 -85 -107 -96 -124 -154 -236 -49 -94 -95 -224 -111 -313 -6 -32 -13
-62 -16 -67 -3 -5 -6 -85 -6 -177 l0 -168 19 -85 c11 -47 30 -115 42 -152 l22
-67 -29 -42 c-35 -53 -132 -134 -193 -162 l-45 -20 -90 0 -90 0 -60 17 c-62
18 -287 93 -387 128 l-57 20 -4 17 c-2 9 8 45 21 81 13 36 31 88 38 115 25 85
44 158 59 215 7 30 28 107 45 170 18 63 38 141 46 173 30 123 43 176 74 292
17 66 38 145 45 175 8 30 21 78 28 105 30 103 201 602 226 660 4 11 18 47 31
80 12 33 26 69 30 80 5 11 19 45 31 75 12 30 27 69 34 85 8 17 23 51 34 77 67
157 142 279 243 398 121 142 264 237 393 260 39 8 76 18 83 25 l13 11 -18 16
c-26 22 -129 55 -198 62 -71 8 -202 -7 -265 -31 -67 -25 -148 -70 -210 -116
-63 -47 -211 -196 -246 -247 -14 -19 -43 -62 -67 -95 -82 -115 -182 -298 -247
-450 -12 -27 -25 -59 -30 -70 -4 -11 -18 -47 -31 -80 -12 -33 -28 -74 -35 -92
-8 -17 -14 -38 -14 -46 0 -9 -4 -18 -9 -21 -5 -4 -12 -24 -16 -46 -4 -22 -11
-42 -16 -46 -5 -3 -9 -15 -10 -27 -1 -37 -35 -131 -50 -138 -31 -17 -1217 -57
-1241 -42 -12 6 -10 35 6 89 8 27 22 76 32 109 40 148 129 424 155 485 62 141
162 290 243 360 95 82 149 137 168 173 l19 39 -12 14 c-21 25 -78 49 -174 74
-138 35 -159 43 -320 124 -82 42 -153 76 -157 76 -4 0 -31 11 -60 24 -84 37
-109 47 -173 68 -33 11 -73 26 -90 33 -16 7 -48 18 -70 24 -22 5 -65 18 -95
27 -189 56 -441 106 -622 123 -57 6 -104 15 -106 20 l-4 11 -238 0 -238 0 -4
-11z m8842 -1995 l69 -15 28 -32 c16 -18 35 -51 42 -75 l14 -42 -17 -98 c-27
-145 -45 -202 -83 -254 -51 -71 -170 -150 -297 -199 -28 -11 -60 -24 -71 -29
-11 -4 -45 -15 -75 -24 -30 -8 -89 -24 -130 -36 -41 -11 -88 -25 -105 -29 -16
-5 -49 -12 -72 -16 l-43 -7 -1 14 c-2 29 2 74 11 98 4 14 19 59 31 100 69 224
246 467 427 588 58 38 141 71 180 72 13 0 54 -7 92 -16z m-4013 -91 c29 -31
53 -60 53 -64 0 -5 25 -35 56 -69 63 -67 146 -127 220 -159 27 -12 57 -26 66
-31 9 -5 35 -13 57 -16 23 -4 46 -13 52 -21 l12 -14 -11 -82 c-13 -90 -32
-194 -57 -302 -8 -38 -21 -96 -28 -127 -7 -31 -16 -60 -20 -64 -4 -4 -7 -16
-7 -26 0 -31 -70 -228 -95 -267 -30 -48 -103 -115 -156 -141 -23 -12 -75 -32
-113 -43 l-71 -21 -125 0 -125 0 -50 18 c-91 33 -130 57 -162 99 l-31 42 -17
65 -17 65 1 123 c0 67 2 126 5 130 2 4 9 55 15 112 11 104 14 118 47 235 20
69 76 211 103 259 41 71 47 82 82 131 68 94 211 225 247 225 9 0 40 -25 69
-57z"/>
</g>
</svg>
