<?xml version="1.0" standalone="no"?>
<!DOCTYPE svg PUBLIC "-//W3C//DTD SVG 20010904//EN"
 "http://www.w3.org/TR/2001/REC-SVG-20010904/DTD/svg10.dtd">
<svg version="1.0" xmlns="http://www.w3.org/2000/svg"
 width="1830.000000pt" height="408.000000pt" viewBox="0 0 1830.000000 408.000000"
 preserveAspectRatio="xMidYMid meet">
<metadata>
Created by potrace 1.16, written by Peter Selinger 2001-2019
</metadata>
<g transform="translate(0.000000,408.000000) scale(0.100000,-0.100000)"
fill="#000000" stroke="none">
<path d="M2170 3737 c-3 -3 -50 -10 -105 -17 -139 -16 -360 -61 -397 -81 -10
-5 -25 -9 -33 -9 -14 0 -117 -32 -160 -50 -11 -4 -45 -18 -75 -30 -122 -47
-320 -141 -320 -152 0 -4 -6 -8 -14 -8 -25 0 -291 -185 -395 -274 -165 -142
-353 -364 -428 -505 -7 -13 -22 -40 -32 -60 -56 -104 -89 -190 -117 -306 -120
-485 62 -804 515 -906 359 -81 856 255 900 609 34 271 -193 548 -329 402 -35
-38 -39 -59 -50 -278 -14 -303 -111 -433 -347 -465 -181 -24 -268 23 -344 185
-45 95 -27 311 37 455 8 17 14 34 14 37 0 4 15 37 32 74 216 449 616 808 1063
953 39 12 79 26 90 30 23 8 103 25 220 45 299 52 847 23 1125 -60 30 -9 73
-21 95 -27 22 -6 44 -14 50 -20 5 -5 15 -9 23 -9 7 0 34 -9 60 -21 395 -173
596 -458 626 -889 18 -242 -122 -529 -344 -705 -27 -22 -65 -52 -82 -67 -87
-73 -266 -149 -363 -155 -116 -7 -141 4 -254 112 -174 167 -339 81 -239 -124
70 -140 187 -217 411 -270 87 -20 263 -6 342 29 11 5 36 13 55 19 19 5 53 17
75 26 22 9 49 19 60 22 336 109 697 443 797 739 57 165 61 538 8 609 -4 6 -11
27 -14 49 -4 21 -11 46 -16 55 -5 9 -24 51 -44 94 -79 173 -272 405 -422 507
-27 19 -51 36 -54 39 -28 32 -233 145 -390 214 -152 66 -439 140 -655 168 -92
11 -566 25 -575 16z M2730 3276 c-72 -20 -102 -40 -170 -114 -190 -206 -244
-317 -379 -772 -12 -41 -26 -82 -30 -90 -5 -9 -12 -31 -15 -50 -4 -19 -11 -44
-16 -55 -4 -11 -23 -67 -41 -125 -69 -227 -101 -326 -110 -342 -5 -10 -9 -24
-9 -32 0 -8 -28 -97 -61 -198 -34 -100 -65 -196 -69 -213 -11 -42 -89 -263
-106 -302 -8 -17 -14 -36 -14 -42 0 -19 -45 -23 -91 -7 -253 86 -605 27 -764
-128 -219 -214 -102 -431 308 -570 143 -49 399 -58 451 -17 6 5 28 12 50 15
21 4 46 11 55 16 9 5 43 21 76 35 69 30 126 66 172 108 31 29 176 1 273 -52 9
-5 31 -12 50 -16 19 -4 40 -11 45 -15 6 -4 26 -11 45 -15 19 -4 41 -11 50 -15
24 -13 424 -139 555 -175 33 -10 74 -22 90 -27 33 -11 110 -31 220 -56 80 -18
439 -29 458 -14 7 5 33 13 59 16 26 4 50 11 53 17 4 5 14 9 23 9 39 0 138 78
167 131 136 250 -250 572 -528 440 -156 -75 -131 -241 37 -241 147 0 233 -72
147 -123 -27 -15 -35 -16 -83 -3 -89 23 -1330 441 -1440 485 -35 13 -35 25 -2
148 14 54 32 123 40 153 22 90 36 144 45 165 4 11 12 40 18 65 5 25 17 72 26
105 9 33 23 85 30 115 7 30 21 80 30 110 9 30 23 80 30 110 7 30 21 82 30 115
9 33 22 85 30 115 13 53 48 184 81 300 9 30 19 64 24 75 5 11 12 35 15 53 4
18 13 45 21 60 8 15 14 33 14 40 0 7 4 20 9 30 4 9 15 33 23 52 72 167 90 192
239 345 80 83 150 161 154 173 38 123 -157 252 -315 208z m-1273 -2682 c57
-47 51 -62 -42 -109 -143 -70 -361 -28 -388 76 -19 73 345 101 430 33z M7677
3275 c-136 -50 -194 -191 -130 -315 98 -191 396 -140 411 71 13 174 -130 299
-281 244z M5165 2244 c-167 -27 -384 -175 -561 -384 -119 -141 -214 -283 -264
-397 -12 -27 -32 -70 -45 -98 -103 -219 -171 -601 -135 -764 38 -179 188 -351
371 -428 72 -31 265 -41 291 -15 7 7 22 12 33 12 139 0 452 284 581 528 60
113 65 97 29 -83 -43 -215 24 -328 235 -393 387 -121 814 -106 1118 39 124 59
95 59 277 0 238 -79 255 -83 345 -88 99 -6 220 12 400 60 574 154 513 152 830
32 367 -139 678 -162 903 -67 16 7 33 12 38 12 5 0 17 4 27 9 9 5 47 23 83 40
396 185 543 689 276 948 -89 86 -135 113 -372 213 -65 27 -211 64 -375 95 -47
8 -98 19 -115 24 -16 5 -46 12 -65 16 -156 29 -197 84 -122 161 133 136 474
187 732 110 30 -9 72 -21 93 -27 21 -5 45 -13 55 -18 9 -5 43 -20 75 -33 52
-20 62 -28 83 -71 131 -258 204 -303 487 -299 108 1 197 0 197 -4 0 -13 -24
-89 -31 -99 -4 -5 -10 -27 -14 -48 -4 -20 -11 -40 -16 -43 -5 -3 -9 -13 -9
-23 0 -10 -11 -53 -25 -96 -109 -334 -97 -472 58 -640 89 -98 169 -155 281
-199 86 -35 392 -4 531 54 140 58 224 110 312 193 114 109 120 109 151 3 33
-120 85 -186 185 -237 117 -60 396 -45 956 51 59 10 111 7 136 -8 63 -39 168
-51 236 -27 93 33 128 90 164 270 9 44 23 105 31 135 40 145 46 166 54 185 5
11 18 47 29 80 163 490 557 970 796 970 202 0 230 -150 119 -650 -7 -33 -20
-94 -30 -135 -32 -146 -61 -276 -89 -398 -77 -326 -60 -424 83 -490 61 -28
317 -35 477 -13 131 18 210 31 245 41 105 28 189 53 217 66 43 19 49 19 128
-20 39 -19 88 -42 110 -51 22 -9 49 -20 60 -25 17 -8 179 -62 270 -90 340
-104 786 18 974 266 42 56 180 318 251 479 77 172 110 404 79 557 -27 140 -44
209 -65 277 -13 41 -21 78 -17 84 8 13 417 1 479 -14 78 -20 287 25 457 99 57
25 57 25 57 86 0 112 -102 166 -220 116 -45 -19 -610 -20 -705 -1 -33 6 -148
14 -255 18 -107 3 -200 10 -207 15 -33 26 -220 65 -376 79 -298 26 -448 -21
-617 -192 -122 -124 -152 -167 -271 -389 -14 -27 -76 -164 -87 -195 -6 -16
-17 -43 -23 -60 -89 -225 -106 -340 -92 -600 11 -198 11 -199 -89 -220 -18 -4
-37 -11 -43 -15 -5 -4 -26 -11 -45 -15 -19 -4 -39 -11 -45 -15 -5 -4 -29 -11
-53 -15 -24 -4 -56 -13 -70 -21 -33 -17 -148 -18 -182 -1 -69 34 -70 117 -5
337 19 62 39 138 61 223 7 31 21 85 30 120 45 180 93 499 80 533 -4 9 -11 45
-15 80 -20 139 -123 273 -263 341 -66 32 -242 69 -278 58 -9 -3 -59 -9 -111
-14 -161 -16 -355 -111 -420 -206 -13 -19 -40 -44 -61 -57 -21 -13 -38 -26
-38 -30 0 -5 -7 -8 -16 -8 -19 0 -16 30 12 102 30 76 -119 210 -214 195 -81
-13 -182 -191 -238 -417 -7 -30 -20 -82 -29 -115 -9 -33 -23 -86 -31 -117 -8
-32 -21 -85 -29 -118 -8 -33 -22 -87 -30 -120 -34 -135 -47 -188 -60 -245 -24
-107 -36 -149 -44 -160 -5 -5 -12 -21 -17 -35 -34 -96 -137 -210 -188 -210
-12 0 -26 -4 -32 -9 -11 -11 -196 -48 -434 -86 -314 -51 -352 2 -235 330 20
55 54 154 76 220 45 134 97 280 110 310 4 11 26 74 48 140 22 66 65 192 95
280 77 223 76 261 -12 319 -86 56 -206 52 -261 -10 -72 -81 -118 -88 -201 -34
-41 26 -131 67 -189 85 -101 31 -402 13 -446 -26 -5 -5 -16 -9 -25 -9 -32 0
-196 -88 -310 -165 -233 -159 -297 -200 -336 -219 -21 -10 -47 -23 -57 -28
-77 -38 -465 -55 -527 -23 -75 39 -68 101 30 243 74 109 67 173 -22 190 -60
11 -287 57 -363 73 -54 11 -139 23 -275 40 -179 22 -473 -13 -605 -71 -11 -5
-45 -19 -75 -30 -439 -168 -531 -626 -172 -863 94 -63 125 -75 287 -112 33 -7
88 -21 123 -29 102 -26 178 -45 245 -62 34 -8 87 -21 117 -29 30 -8 75 -19 99
-25 104 -26 138 -73 127 -179 -29 -284 -371 -419 -731 -289 -108 39 -305 138
-345 173 -117 102 -247 94 -388 -23 -127 -106 -244 -146 -507 -173 -60 -6
-113 -13 -116 -15 -29 -17 -340 -5 -373 15 -59 37 -70 125 -31 246 7 22 30 94
50 160 21 66 109 334 197 595 196 587 192 573 178 614 -29 88 -130 128 -267
106 -97 -16 -126 -41 -152 -132 -12 -40 -28 -93 -35 -118 -25 -79 -75 -251
-123 -415 -20 -69 -36 -126 -66 -225 -14 -47 -33 -112 -43 -145 -9 -33 -25
-89 -36 -125 -11 -36 -27 -90 -35 -120 -9 -30 -26 -86 -39 -125 -12 -38 -25
-85 -29 -103 -36 -175 -189 -232 -653 -239 -315 -6 -318 -5 -361 38 -32 32
-48 168 -21 184 6 3 10 15 10 25 0 21 98 319 110 335 4 6 11 26 15 45 4 19 10
40 13 45 7 11 52 135 84 230 11 33 26 74 33 90 7 17 27 71 45 120 18 50 38
104 45 120 6 17 22 57 34 90 13 33 27 69 31 80 5 11 18 43 30 70 12 28 26 61
33 74 51 102 -45 215 -193 228 -73 7 -167 -73 -229 -194 -39 -78 -82 -82 -154
-15 -29 27 -83 69 -122 94 -63 40 -105 58 -227 97 -39 13 -214 22 -263 15z
m334 -322 c128 -75 239 -260 192 -322 -11 -16 -21 -31 -21 -34 0 -3 -27 -50
-60 -104 -33 -55 -60 -104 -60 -110 0 -5 -6 -15 -14 -21 -8 -7 -24 -31 -36
-54 -11 -23 -26 -51 -33 -62 -7 -11 -50 -83 -96 -160 -194 -325 -330 -487
-461 -552 -313 -152 -414 -16 -340 457 12 76 28 139 45 177 8 17 15 34 15 37
0 35 132 262 221 381 242 323 486 461 648 367z m6491 -29 c127 -57 165 -127
165 -303 0 -132 -4 -157 -42 -270 -41 -120 -123 -282 -186 -367 -109 -148
-530 -453 -624 -453 -10 0 -24 -5 -31 -12 -34 -34 -171 -22 -210 19 -267 280
144 1231 608 1407 39 15 275 -1 320 -21z m4668 2 c194 -30 214 -43 280 -185
94 -202 71 -553 -55 -850 -109 -259 -192 -367 -333 -438 -247 -124 -557 -57
-650 140 -49 105 -55 349 -10 468 5 14 12 43 16 65 4 22 10 45 14 50 4 6 11
26 15 45 4 19 11 40 15 45 4 6 11 26 15 45 4 19 11 41 15 50 5 8 18 40 30 70
65 166 194 384 266 449 66 61 190 76 382 46z"/>
</g>
</svg>
