<?xml version="1.0" standalone="no"?>
<!DOCTYPE svg PUBLIC "-//W3C//DTD SVG 20010904//EN"
 "http://www.w3.org/TR/2001/REC-SVG-20010904/DTD/svg10.dtd">
<svg version="1.0" xmlns="http://www.w3.org/2000/svg"
 width="1830.000000pt" height="408.000000pt" viewBox="0 0 1830.000000 408.000000"
 preserveAspectRatio="xMidYMid meet">
<metadata>
Created by potrace 1.16, written by Peter Selinger 2001-2019
</metadata>
<g transform="translate(0.000000,408.000000) scale(0.100000,-0.100000)"
fill="#000000" stroke="none">
<path d="M2170 3737 c-3 -3 -50 -10 -105 -17 -139 -16 -360 -61 -397 -81 -10
-5 -25 -9 -33 -9 -14 0 -117 -32 -160 -50 -11 -4 -45 -18 -75 -30 -122 -47
-320 -141 -320 -152 0 -4 -6 -8 -14 -8 -25 0 -291 -185 -395 -274 -165 -142
-353 -364 -428 -505 -7 -13 -22 -40 -32 -60 -31 -58 -79 -166 -91 -208 -50
-167 -62 -253 -57 -418 4 -144 6 -152 36 -213 96 -193 268 -318 510 -373 103
-23 130 -23 218 -4 433 99 738 436 681 755 -38 219 -227 368 -328 260 -35 -38
-39 -59 -50 -278 -8 -176 -10 -185 -40 -247 -61 -126 -163 -198 -307 -218
-181 -24 -268 23 -344 185 -15 31 -30 191 -23 247 6 56 33 147 60 208 8 17 14
34 14 37 0 27 123 247 211 376 73 108 328 356 444 433 149 98 299 172 440 218
39 12 79 26 90 30 23 8 103 25 220 45 299 52 847 23 1125 -60 30 -9 73 -21 95
-27 22 -6 44 -14 50 -20 5 -5 15 -9 23 -9 13 0 71 -24 142 -58 132 -64 312
-221 391 -342 135 -204 189 -517 130 -748 -36 -141 -187 -361 -321 -467 -27
-22 -65 -52 -82 -67 -18 -15 -87 -55 -152 -89 -115 -58 -124 -61 -211 -66
-116 -7 -141 4 -254 112 l-83 80 -68 0 c-124 0 -154 -69 -88 -204 70 -140 187
-217 411 -270 87 -20 263 -6 342 29 11 5 36 13 55 19 19 5 53 17 75 26 22 9
49 19 60 22 40 13 252 121 300 154 371 247 545 532 545 893 0 95 -25 281 -40
301 -4 6 -11 27 -14 49 -4 21 -11 46 -16 55 -5 9 -24 51 -44 94 -79 173 -272
405 -422 507 -27 19 -51 36 -54 39 -28 32 -233 145 -390 214 -152 66 -439 140
-655 168 -92 11 -566 25 -575 16z M2730 3276 c-72 -20 -102 -40 -170 -114
-190 -206 -244 -317 -379 -772 -12 -41 -26 -82 -30 -90 -5 -9 -12 -31 -15 -50
-4 -19 -11 -44 -16 -55 -4 -11 -23 -67 -41 -125 -69 -227 -101 -326 -110 -342
-5 -10 -9 -24 -9 -32 0 -8 -28 -97 -61 -198 -34 -100 -65 -196 -69 -213 -11
-42 -89 -263 -106 -302 -8 -17 -14 -36 -14 -42 0 -19 -45 -23 -91 -7 -145 49
-419 47 -557 -4 -236 -88 -362 -270 -296 -428 51 -124 317 -270 554 -304 81
-12 269 1 294 21 6 5 28 12 50 15 21 4 46 11 55 16 9 5 43 21 76 35 69 30 126
66 172 108 l32 30 113 -37 c62 -20 120 -40 128 -45 9 -5 31 -12 50 -16 19 -4
40 -11 45 -15 6 -4 26 -11 45 -15 19 -4 41 -11 50 -15 24 -13 424 -139 555
-175 33 -10 74 -22 90 -27 33 -11 110 -31 220 -56 80 -18 439 -29 458 -14 7 5
33 13 59 16 26 4 50 11 53 17 4 5 14 9 23 9 39 0 138 78 167 131 93 172 -35
374 -290 454 -169 52 -335 -22 -335 -150 0 -76 37 -105 134 -105 147 0 233
-72 147 -123 -27 -15 -35 -16 -83 -3 -89 23 -1330 441 -1440 485 -35 13 -35
25 -2 148 14 54 32 123 40 153 22 90 36 144 45 165 4 11 12 40 18 65 5 25 17
72 26 105 9 33 23 85 30 115 7 30 21 80 30 110 9 30 23 80 30 110 7 30 21 82
30 115 9 33 22 85 30 115 13 53 48 184 81 300 9 30 19 64 24 75 5 11 12 35 15
53 4 18 13 45 21 60 8 15 14 33 14 40 0 7 4 20 9 30 4 9 15 33 23 52 72 167
90 192 239 345 80 83 150 161 154 173 38 123 -157 252 -315 208z m-1273 -2682
c57 -47 51 -62 -42 -109 -110 -54 -188 -56 -285 -7 -107 55 -129 87 -81 121
37 27 58 29 223 28 l146 -2 39 -31z M7677 3275 c-136 -50 -194 -191 -130 -315
98 -191 396 -140 411 71 6 86 -4 121 -50 174 -67 76 -147 100 -231 70z M5165
2244 c-167 -27 -384 -175 -561 -384 -119 -141 -214 -283 -264 -397 -12 -27
-32 -70 -45 -98 -103 -219 -171 -601 -135 -764 38 -179 188 -351 371 -428 72
-31 265 -41 291 -15 7 7 22 12 33 12 60 0 281 142 374 240 58 61 167 212 207
288 60 113 65 97 29 -83 -55 -272 60 -380 480 -452 299 -51 639 -13 873 98
124 59 95 59 277 0 238 -79 255 -83 345 -88 99 -6 220 12 400 60 574 154 513
152 830 32 221 -84 341 -113 490 -121 139 -7 326 17 413 54 16 7 33 12 38 12
5 0 17 4 27 9 9 5 47 23 83 40 396 185 543 689 276 948 -89 86 -135 113 -372
213 -65 27 -211 64 -375 95 -47 8 -98 19 -115 24 -16 5 -46 12 -65 16 -156 29
-197 84 -122 161 133 136 474 187 732 110 30 -9 72 -21 93 -27 21 -5 45 -13
55 -18 9 -5 43 -20 75 -33 52 -20 62 -28 83 -71 71 -138 158 -240 241 -279 46
-22 58 -23 246 -20 108 1 197 0 197 -4 0 -13 -24 -89 -31 -99 -4 -5 -10 -27
-14 -48 -4 -20 -11 -40 -16 -43 -5 -3 -9 -13 -9 -23 0 -10 -11 -53 -25 -96
-109 -334 -97 -472 58 -640 89 -98 169 -155 281 -199 86 -35 392 -4 531 54
140 58 224 110 312 193 114 109 120 109 151 3 33 -120 85 -186 185 -237 117
-60 396 -45 956 51 59 10 111 7 136 -8 63 -39 168 -51 236 -27 93 33 128 90
164 270 9 44 23 105 31 135 40 145 46 166 54 185 5 11 18 47 29 80 131 394
438 820 681 947 64 33 171 33 218 0 104 -75 108 -212 16 -627 -7 -33 -20 -94
-30 -135 -32 -146 -61 -276 -89 -398 -51 -217 -58 -273 -40 -337 40 -146 106
-179 354 -177 97 1 208 6 246 11 131 18 210 31 245 41 105 28 189 53 217 66
43 19 49 19 128 -20 39 -19 88 -42 110 -51 22 -9 49 -20 60 -25 17 -8 179 -62
270 -90 340 -104 786 18 974 266 42 56 180 318 251 479 77 172 110 404 79 557
-27 140 -44 209 -65 277 -13 41 -21 78 -17 84 8 13 417 1 479 -14 78 -20 287
25 457 99 l57 25 0 61 c0 112 -102 166 -220 116 -45 -19 -610 -20 -705 -1 -33
6 -148 14 -255 18 -107 3 -200 10 -207 15 -33 26 -220 65 -376 79 -298 26
-448 -21 -617 -192 -122 -124 -152 -167 -271 -389 -14 -27 -76 -164 -87 -195
-6 -16 -17 -43 -23 -60 -89 -225 -106 -340 -92 -600 5 -88 7 -166 5 -172 -5
-16 -51 -39 -94 -48 -18 -4 -37 -11 -43 -15 -5 -4 -26 -11 -45 -15 -19 -4 -39
-11 -45 -15 -5 -4 -29 -11 -53 -15 -24 -4 -56 -13 -70 -21 -33 -17 -148 -18
-182 -1 -14 7 -34 30 -44 51 -21 42 -10 120 39 286 19 62 39 138 61 223 7 31
21 85 30 120 45 180 93 499 80 533 -4 9 -11 45 -15 80 -20 139 -123 273 -263
341 -66 32 -242 69 -278 58 -9 -3 -59 -9 -111 -14 -161 -16 -355 -111 -420
-206 -13 -19 -40 -44 -61 -57 -21 -13 -38 -26 -38 -30 0 -5 -7 -8 -16 -8 -19
0 -16 30 12 102 l19 48 -53 53 c-107 108 -186 123 -253 46 -62 -71 -127 -218
-165 -369 -7 -30 -20 -82 -29 -115 -9 -33 -23 -86 -31 -117 -8 -32 -21 -85
-29 -118 -8 -33 -22 -87 -30 -120 -34 -135 -47 -188 -60 -245 -24 -107 -36
-149 -44 -160 -5 -5 -12 -21 -17 -35 -34 -96 -137 -210 -188 -210 -12 0 -26
-4 -32 -9 -20 -20 -484 -100 -598 -103 -68 -2 -69 -2 -102 36 -47 54 -42 106
31 311 20 55 54 154 76 220 45 134 97 280 110 310 4 11 26 74 48 140 22 66 65
192 95 280 77 223 76 261 -12 319 -56 36 -59 37 -141 34 l-83 -3 -37 -41 c-72
-81 -118 -88 -201 -34 -41 26 -131 67 -189 85 -101 31 -402 13 -446 -26 -5 -5
-16 -9 -25 -9 -32 0 -196 -88 -310 -165 -233 -159 -297 -200 -336 -219 -21
-10 -47 -23 -57 -28 -77 -38 -465 -55 -527 -23 -75 39 -68 101 30 243 74 109
67 173 -22 190 -60 11 -287 57 -363 73 -54 11 -139 23 -275 40 -179 22 -473
-13 -605 -71 -11 -5 -45 -19 -75 -30 -152 -58 -297 -178 -355 -294 -44 -88
-45 -270 -2 -361 39 -82 104 -155 185 -208 94 -63 125 -75 287 -112 33 -7 88
-21 123 -29 102 -26 178 -45 245 -62 34 -8 87 -21 117 -29 30 -8 75 -19 99
-25 104 -26 138 -73 127 -179 -29 -284 -371 -419 -731 -289 -108 39 -305 138
-345 173 -117 102 -247 94 -388 -23 -127 -106 -244 -146 -507 -173 -60 -6
-113 -13 -116 -15 -3 -2 -81 -4 -172 -5 -154 -2 -168 0 -201 20 -59 37 -70
125 -31 246 7 22 30 94 50 160 21 66 109 334 197 595 196 587 192 573 178 614
-29 88 -130 128 -267 106 -97 -16 -126 -41 -152 -132 -12 -40 -28 -93 -35
-118 -25 -79 -75 -251 -123 -415 -20 -69 -36 -126 -66 -225 -14 -47 -33 -112
-43 -145 -9 -33 -25 -89 -36 -125 -11 -36 -27 -90 -35 -120 -9 -30 -26 -86
-39 -125 -12 -38 -25 -85 -29 -103 -23 -112 -110 -177 -293 -217 -79 -18 -612
-35 -666 -21 -58 14 -86 61 -86 141 0 41 5 77 10 80 6 3 10 15 10 25 0 21 98
319 110 335 4 6 11 26 15 45 4 19 10 40 13 45 7 11 52 135 84 230 11 33 26 74
33 90 7 17 27 71 45 120 18 50 38 104 45 120 6 17 22 57 34 90 13 33 27 69 31
80 5 11 18 43 30 70 12 28 26 61 33 74 21 42 15 116 -11 144 -33 35 -129 80
-182 84 -73 7 -167 -73 -229 -194 -39 -78 -82 -82 -154 -15 -29 27 -83 69
-122 94 -63 40 -105 58 -227 97 -39 13 -214 22 -263 15z m334 -322 c56 -32
102 -80 157 -163 56 -85 64 -121 35 -159 -11 -16 -21 -31 -21 -34 0 -3 -27
-50 -60 -104 -33 -55 -60 -104 -60 -110 0 -5 -6 -15 -14 -21 -8 -7 -24 -31
-36 -54 -11 -23 -26 -51 -33 -62 -7 -11 -50 -83 -96 -160 -194 -325 -330 -487
-461 -552 -313 -152 -414 -16 -340 457 12 76 28 139 45 177 8 17 15 34 15 37
0 35 132 262 221 381 242 323 486 461 648 367z m6491 -29 c127 -57 165 -127
165 -303 0 -132 -4 -157 -42 -270 -41 -120 -123 -282 -186 -367 -109 -148
-530 -453 -624 -453 -10 0 -24 -5 -31 -12 -6 -6 -48 -13 -92 -16 l-81 -5 -37
40 c-192 202 -9 867 337 1226 84 88 163 140 271 181 39 15 275 -1 320 -21z
m4668 2 c194 -30 214 -43 280 -185 94 -202 71 -553 -55 -850 -109 -259 -192
-367 -333 -438 -247 -124 -557 -57 -650 140 -49 105 -55 349 -10 468 5 14 12
43 16 65 4 22 10 45 14 50 4 6 11 26 15 45 4 19 11 40 15 45 4 6 11 26 15 45
4 19 11 41 15 50 5 8 18 40 30 70 65 166 194 384 266 449 66 61 190 76 382 46z"/>
</g>
</svg>
