<?xml version="1.0" standalone="no"?>
<!DOCTYPE svg PUBLIC "-//W3C//DTD SVG 20010904//EN"
 "http://www.w3.org/TR/2001/REC-SVG-20010904/DTD/svg10.dtd">
<svg version="1.0" xmlns="http://www.w3.org/2000/svg"
 width="1830.000000pt" height="408.000000pt" viewBox="0 0 1830.000000 408.000000"
 preserveAspectRatio="xMidYMid meet">
<metadata>
Created by potrace 1.16, written by Peter Selinger 2001-2019
</metadata>
<g transform="translate(0.000000,408.000000) scale(0.100000,-0.100000)"
fill="#000000" stroke="none">
<path d="M2170 3737 c-3 -3 -50 -10 -105 -17 -139 -16 -360 -61 -397 -81 -10
-5 -25 -9 -33 -9 -14 0 -117 -32 -160 -50 -11 -4 -45 -18 -75 -30 -122 -47
-320 -141 -320 -152 0 -4 -6 -8 -14 -8 -25 0 -291 -185 -395 -274 -165 -142
-353 -364 -428 -505 -7 -13 -22 -40 -32 -60 -31 -58 -79 -166 -91 -208 -50
-167 -62 -253 -57 -418 l4 -150 32 -63 c65 -131 158 -223 302 -299 74 -39 107
-51 208 -74 103 -23 130 -23 218 -4 201 46 370 139 510 281 l82 83 40 84 40
84 10 81 10 81 -11 61 c-6 34 -25 92 -43 128 l-32 67 -44 40 c-24 22 -63 47
-86 54 l-41 14 -28 -7 c-36 -9 -80 -58 -88 -98 -4 -18 -11 -115 -16 -216 l-8
-182 -32 -65 c-38 -78 -98 -141 -171 -179 l-54 -28 -82 -11 -83 -11 -61 12
-62 11 -45 38 c-38 33 -61 65 -93 135 -15 31 -30 191 -23 247 6 56 33 147 60
208 8 17 14 34 14 37 0 14 68 146 116 226 97 162 140 216 289 366 l150 151
100 66 c149 98 299 172 440 218 39 12 79 26 90 30 11 4 47 13 80 19 144 29
229 41 357 49 l136 8 169 -8 c252 -12 463 -41 603 -83 30 -9 73 -21 95 -27 22
-6 44 -14 50 -20 5 -5 15 -9 23 -9 13 0 71 -24 142 -58 132 -64 312 -221 391
-342 67 -102 114 -228 137 -370 34 -203 19 -342 -50 -488 -61 -127 -178 -278
-278 -357 -27 -22 -65 -52 -82 -67 -18 -15 -87 -55 -152 -89 l-120 -61 -91 -5
-91 -6 -40 19 c-21 10 -77 55 -123 99 l-83 80 -68 0 -68 0 -26 -24 -26 -24 0
-45 0 -45 32 -66 c70 -140 187 -217 411 -270 87 -20 263 -6 342 29 11 5 36 13
55 19 19 5 53 17 75 26 22 9 49 19 60 22 40 13 252 121 300 154 156 104 293
230 373 342 113 160 172 350 172 551 0 95 -25 281 -40 301 -4 6 -11 27 -14 49
-4 21 -11 46 -16 55 -5 9 -24 51 -44 94 -35 77 -106 191 -156 252 -51 63 -219
223 -266 255 -27 19 -51 36 -54 39 -28 32 -233 145 -390 214 -152 66 -439 140
-655 168 -92 11 -566 25 -575 16z M2730 3276 c-72 -20 -102 -40 -170 -114
-110 -119 -182 -222 -229 -324 -20 -45 -110 -312 -150 -448 -12 -41 -26 -82
-30 -90 -5 -9 -12 -31 -15 -50 -4 -19 -11 -44 -16 -55 -4 -11 -23 -67 -41
-125 -69 -227 -101 -326 -110 -342 -5 -10 -9 -24 -9 -32 0 -8 -28 -97 -61
-198 -34 -100 -65 -196 -69 -213 -11 -42 -89 -263 -106 -302 -8 -17 -14 -36
-14 -42 0 -19 -45 -23 -91 -7 -24 8 -101 22 -170 30 l-125 15 -105 -15 c-164
-23 -274 -71 -364 -158 l-55 -54 -25 -54 -25 -53 0 -53 c0 -92 33 -146 138
-224 99 -73 293 -150 432 -170 l78 -12 103 12 c56 7 107 16 113 21 6 5 28 12
50 15 21 4 46 11 55 16 9 5 43 21 76 35 69 30 126 66 172 108 l32 30 113 -37
c62 -20 120 -40 128 -45 9 -5 31 -12 50 -16 19 -4 40 -11 45 -15 6 -4 26 -11
45 -15 19 -4 41 -11 50 -15 24 -13 424 -139 555 -175 33 -10 74 -22 90 -27 33
-11 110 -31 220 -56 l70 -15 188 -4 189 -4 11 9 c7 5 33 13 59 16 26 4 50 11
53 17 4 5 14 9 23 9 10 0 44 18 78 40 l60 39 29 52 28 52 1 67 0 66 -18 38
c-26 55 -122 150 -186 183 -30 16 -82 37 -115 48 l-60 18 -58 -1 -57 -1 -63
-30 -62 -30 -17 -29 -18 -30 0 -47 0 -47 29 -29 29 -29 76 0 75 0 38 -17 c21
-10 46 -25 56 -35 l19 -16 -6 -19 c-3 -10 -19 -26 -35 -36 l-29 -17 -54 14
c-89 23 -1330 441 -1440 485 l-28 11 0 20 c0 11 12 64 26 117 14 54 32 123 40
153 22 90 36 144 45 165 4 11 12 40 18 65 5 25 17 72 26 105 9 33 23 85 30
115 7 30 21 80 30 110 9 30 23 80 30 110 7 30 21 82 30 115 9 33 22 85 30 115
13 53 48 184 81 300 9 30 19 64 24 75 5 11 12 35 15 53 4 18 13 45 21 60 8 15
14 33 14 40 0 7 4 20 9 30 4 9 15 33 23 52 8 19 33 71 54 115 l38 80 147 150
c80 83 150 161 154 173 26 84 -57 178 -184 208 -67 16 -73 16 -131 0z m-1273
-2682 c21 -17 38 -40 38 -50 l0 -19 -80 -40 -80 -39 -70 0 -70 -1 -65 33 c-74
38 -96 55 -103 83 l-5 19 27 19 c37 27 58 29 223 28 l146 -2 39 -31z M7677
3275 c-53 -20 -89 -47 -120 -93 l-27 -39 -6 -64 -6 -64 29 -55 28 -55 45 -30
45 -30 75 0 75 0 42 27 c23 15 54 44 69 64 l28 36 4 59 c2 32 1 74 -2 93 l-6
34 -42 47 -42 47 -44 19 c-51 22 -92 23 -145 4z M5165 2244 c-47 -8 -154 -51
-226 -92 -65 -36 -98 -61 -199 -147 -46 -39 -202 -217 -247 -282 -43 -61 -132
-213 -153 -260 -12 -27 -32 -70 -45 -98 -77 -164 -132 -396 -142 -604 l-5
-105 12 -55 c38 -179 188 -351 371 -428 l64 -27 108 0 107 0 12 12 c7 7 22 12
33 12 60 0 281 142 374 240 58 61 167 212 207 288 60 113 65 97 29 -83 l-16
-80 6 -59 c9 -80 30 -130 72 -166 69 -61 214 -112 418 -147 l100 -17 190 -1
190 0 70 13 c128 25 219 54 323 103 57 27 108 49 115 49 6 0 79 -22 162 -49
238 -79 255 -83 345 -88 99 -6 220 12 400 60 428 115 502 131 560 121 47 -8
119 -32 270 -89 221 -84 341 -113 490 -121 l115 -6 75 11 c97 14 188 34 223
49 16 7 33 12 38 12 5 0 17 4 27 9 9 5 47 23 83 40 131 61 263 183 328 304 45
83 59 128 76 242 l16 99 -16 70 c-21 93 -64 171 -128 233 -89 86 -135 113
-372 213 -65 27 -211 64 -375 95 -47 8 -98 19 -115 24 -16 5 -46 12 -65 16
-51 10 -122 36 -142 53 -10 8 -18 27 -18 42 l0 28 38 38 c41 42 133 92 222
120 l55 17 145 4 c147 5 211 -2 310 -31 30 -9 72 -21 93 -27 21 -5 45 -13 55
-18 9 -5 43 -20 75 -33 l59 -22 24 -49 c71 -138 158 -240 241 -279 l48 -23
198 3 c108 1 197 0 197 -4 0 -13 -24 -89 -31 -99 -4 -5 -10 -27 -14 -48 -4
-20 -11 -40 -16 -43 -5 -3 -9 -13 -9 -23 0 -10 -11 -53 -25 -96 -14 -42 -37
-125 -51 -183 l-26 -107 4 -75 4 -75 34 -68 c67 -136 215 -268 374 -331 l38
-16 92 0 c92 0 226 19 326 46 67 19 71 20 195 80 l99 49 93 88 92 89 18 -4 18
-3 23 -79 c33 -120 85 -186 185 -237 l62 -32 120 -2 c172 -4 407 22 774 85 59
10 111 7 136 -8 28 -18 115 -41 151 -42 59 0 123 25 165 66 l36 35 16 52 c9
29 23 88 32 132 9 44 23 105 31 135 40 145 46 166 54 185 5 11 18 47 29 80 29
88 45 127 114 265 154 314 379 584 567 682 l45 23 70 0 70 0 33 -23 c18 -13
42 -42 54 -65 l22 -42 4 -96 4 -95 -27 -135 c-15 -74 -33 -161 -41 -194 -7
-33 -20 -94 -30 -135 -32 -146 -61 -276 -89 -398 -9 -37 -25 -114 -37 -172
l-20 -105 17 -60 c9 -33 28 -75 42 -94 l26 -33 55 -26 56 -25 175 1 c97 1 208
6 246 11 131 18 210 31 245 41 105 28 189 53 217 66 43 19 49 19 128 -20 39
-19 88 -42 110 -51 22 -9 49 -20 60 -25 17 -8 179 -62 270 -90 17 -5 72 -16
123 -26 l94 -16 81 5 c94 7 219 28 294 50 143 41 301 146 382 253 42 56 180
318 251 479 77 172 110 404 79 557 -27 140 -44 209 -65 277 -13 41 -21 78 -17
84 l6 10 214 -6 c117 -4 234 -12 259 -18 l46 -12 96 18 c131 24 207 46 315 93
l57 25 0 61 0 62 -35 34 -36 35 -57 0 c-31 0 -73 -7 -92 -15 l-35 -15 -305 1
-305 1 -60 12 c-33 6 -148 14 -255 18 -107 3 -200 10 -207 15 -33 26 -220 65
-376 79 -298 26 -448 -21 -617 -192 -122 -124 -152 -167 -271 -389 -14 -27
-76 -164 -87 -195 -6 -16 -17 -43 -23 -60 -7 -16 -27 -73 -46 -125 l-33 -95
-11 -110 -11 -110 9 -160 c5 -88 7 -166 5 -172 -5 -16 -51 -39 -94 -48 -18 -4
-37 -11 -43 -15 -5 -4 -26 -11 -45 -15 -19 -4 -39 -11 -45 -15 -5 -4 -29 -11
-53 -15 -24 -4 -56 -13 -70 -21 l-27 -14 -65 0 c-81 0 -110 14 -134 64 l-19
40 21 95 c11 53 28 121 37 151 19 62 39 138 61 223 7 31 21 85 30 120 45 180
93 499 80 533 -4 9 -11 45 -15 80 l-9 63 -33 66 -32 66 -61 57 c-34 31 -91 71
-128 89 l-66 32 -97 16 c-54 8 -105 13 -115 10 -9 -3 -59 -9 -111 -14 l-94 -9
-95 -39 c-103 -42 -194 -104 -231 -158 -13 -19 -40 -44 -61 -57 -21 -13 -38
-26 -38 -30 0 -5 -7 -8 -16 -8 l-16 0 5 28 c3 15 13 48 23 74 l19 48 -53 53
c-30 30 -74 64 -99 77 l-45 22 -36 -5 -37 -6 -36 -42 c-62 -71 -127 -218 -165
-369 -7 -30 -20 -82 -29 -115 -9 -33 -23 -86 -31 -117 -8 -32 -21 -85 -29
-118 -8 -33 -22 -87 -30 -120 -34 -135 -47 -188 -60 -245 -24 -107 -36 -149
-44 -160 -5 -5 -12 -21 -17 -35 -34 -96 -137 -210 -188 -210 -12 0 -26 -4 -32
-9 -20 -20 -484 -100 -598 -103 l-69 -2 -33 38 c-19 22 -34 50 -34 62 0 38 28
143 65 249 20 55 54 154 76 220 45 134 97 280 110 310 4 11 26 74 48 140 22
66 65 192 95 280 l55 160 1 40 c0 65 -9 80 -68 119 l-57 37 -84 -3 -83 -3 -37
-41 c-20 -22 -49 -48 -65 -58 l-29 -18 -41 13 c-23 7 -52 20 -66 29 -41 26
-131 67 -189 85 l-55 17 -119 -1 -120 0 -71 -17 c-39 -9 -75 -21 -81 -25 -5
-5 -16 -9 -25 -9 -32 0 -196 -88 -310 -165 -233 -159 -297 -200 -336 -219 -21
-10 -47 -23 -57 -28 -40 -20 -191 -37 -337 -39 l-155 -2 -35 18 c-43 22 -50
32 -50 70 0 38 27 96 80 173 l42 62 5 39 c3 21 0 47 -6 59 l-11 20 -52 10
c-60 11 -287 57 -363 73 -54 11 -139 23 -275 40 -179 22 -473 -13 -605 -71
-11 -5 -45 -19 -75 -30 -99 -38 -184 -93 -255 -164 l-70 -71 -30 -59 -30 -59
0 -121 0 -121 28 -60 c39 -82 104 -155 185 -208 94 -63 125 -75 287 -112 33
-7 88 -21 123 -29 102 -26 178 -45 245 -62 34 -8 87 -21 117 -29 30 -8 75 -19
99 -25 63 -16 98 -39 117 -79 l16 -34 -6 -66 c-15 -145 -123 -267 -281 -317
l-60 -19 -120 1 -120 0 -60 18 c-93 27 -149 49 -240 92 -70 33 -177 93 -195
109 -33 28 -132 75 -160 75 -17 0 -57 -8 -90 -17 l-61 -16 -77 -65 c-42 -35
-95 -72 -117 -83 -92 -42 -222 -72 -390 -90 -60 -6 -113 -13 -116 -15 -3 -2
-81 -4 -172 -5 l-165 -2 -36 22 -35 22 -11 35 -12 36 7 56 c4 31 13 75 20 97
7 22 30 94 50 160 21 66 109 334 197 595 87 261 165 499 174 528 l15 54 -11
32 c-6 18 -25 47 -43 64 l-34 33 -61 9 -62 10 -67 -10 -68 -11 -31 -24 -32
-25 -21 -72 c-12 -40 -28 -93 -35 -118 -25 -79 -75 -251 -123 -415 -20 -69
-36 -126 -66 -225 -14 -47 -33 -112 -43 -145 -9 -33 -25 -89 -36 -125 -11 -36
-27 -90 -35 -120 -9 -30 -26 -86 -39 -125 -12 -38 -25 -85 -29 -103 -11 -53
-34 -90 -80 -129 -51 -42 -104 -64 -213 -88 l-77 -18 -283 -4 c-155 -3 -293
-2 -306 1 -14 3 -38 20 -55 37 l-31 31 0 73 c0 41 5 77 10 80 6 3 10 15 10 25
0 21 98 319 110 335 4 6 11 26 15 45 4 19 10 40 13 45 7 11 52 135 84 230 11
33 26 74 33 90 7 17 27 71 45 120 18 50 38 104 45 120 6 17 22 57 34 90 13 33
27 69 31 80 5 11 18 43 30 70 12 28 26 61 33 74 7 13 12 45 12 72 l0 47 -23
25 c-33 35 -129 80 -182 84 l-45 5 -47 -34 c-51 -37 -103 -99 -137 -165 -39
-78 -82 -82 -154 -15 -29 27 -83 69 -122 94 -63 40 -105 58 -227 97 -39 13
-214 22 -263 15z m334 -322 c23 -14 59 -41 78 -61 50 -51 122 -163 129 -201
l7 -31 -22 -29 c-11 -16 -21 -31 -21 -34 0 -3 -27 -50 -60 -104 -33 -55 -60
-104 -60 -110 0 -5 -6 -15 -14 -21 -8 -7 -24 -31 -36 -54 -11 -23 -26 -51 -33
-62 -7 -11 -50 -83 -96 -160 -46 -77 -113 -185 -150 -239 l-66 -100 -90 -90
-91 -91 -64 -32 c-90 -43 -136 -56 -200 -56 l-56 0 -27 18 c-37 24 -54 58 -73
147 l-15 73 11 110 c19 186 37 281 65 342 8 17 15 34 15 37 0 12 76 161 115
226 95 160 262 353 375 437 167 123 273 147 379 85z m6491 -29 c54 -24 120
-84 146 -133 l19 -35 0 -135 0 -135 -14 -45 c-32 -107 -47 -147 -95 -250 -75
-159 -126 -231 -242 -337 -148 -135 -440 -323 -501 -323 -10 0 -24 -5 -31 -12
-6 -6 -48 -13 -92 -16 l-81 -5 -37 40 -38 39 -19 65 -20 64 0 110 1 110 18 80
c17 76 38 147 68 225 31 83 160 326 209 392 120 167 240 265 389 322 8 3 74 4
145 2 l130 -3 45 -20z m4668 2 c53 -8 121 -22 149 -31 l53 -16 33 -56 c67
-116 85 -168 99 -307 l11 -110 -15 -115 c-30 -213 -68 -332 -184 -575 l-39
-80 -75 -75 -75 -75 -65 -33 c-94 -47 -154 -62 -249 -62 -143 0 -263 41 -338
116 -54 55 -80 110 -98 212 l-14 83 15 117 c8 64 19 128 24 142 5 14 12 43 16
65 4 22 10 45 14 50 4 6 11 26 15 45 4 19 11 40 15 45 4 6 11 26 15 45 4 19
11 41 15 50 5 8 18 40 30 70 65 166 194 384 266 449 19 18 54 39 77 46 58 18
188 18 305 0z"/>
</g>
</svg>
